G04 #@! TF.GenerationSoftware,KiCad,Pcbnew,5.0.0*
G04 #@! TF.CreationDate,2019-01-07T12:38:54-05:00*
G04 #@! TF.ProjectId,controller,636F6E74726F6C6C65722E6B69636164,rev?*
G04 #@! TF.SameCoordinates,Original*
G04 #@! TF.FileFunction,Paste,Top*
G04 #@! TF.FilePolarity,Positive*
%FSLAX46Y46*%
G04 Gerber Fmt 4.6, Leading zero omitted, Abs format (unit mm)*
G04 Created by KiCad (PCBNEW 5.0.0) date Mon Jan  7 12:38:54 2019*
%MOMM*%
%LPD*%
G01*
G04 APERTURE LIST*
%ADD10R,1.099820X0.998220*%
%ADD11R,2.059940X1.270000*%
%ADD12R,1.270000X2.059940*%
%ADD13R,0.797560X1.198880*%
%ADD14R,0.998220X1.099820*%
%ADD15R,1.550000X0.600000*%
%ADD16R,1.798320X1.597660*%
%ADD17R,2.319020X3.810000*%
%ADD18R,10.998200X9.649460*%
G04 APERTURE END LIST*
D10*
G04 #@! TO.C,R1*
X111411640Y-59240000D03*
X113108360Y-59240000D03*
G04 #@! TD*
D11*
G04 #@! TO.C,C5*
X93860000Y-38287400D03*
X93860000Y-41792600D03*
G04 #@! TD*
D12*
G04 #@! TO.C,C7*
X97962600Y-33490000D03*
X94457400Y-33490000D03*
G04 #@! TD*
D10*
G04 #@! TO.C,R5*
X113008360Y-50840000D03*
X111311640Y-50840000D03*
G04 #@! TD*
D12*
G04 #@! TO.C,C15*
X97962600Y-58690000D03*
X94457400Y-58690000D03*
G04 #@! TD*
D10*
G04 #@! TO.C,C14*
X98033360Y-61015000D03*
X96336640Y-61015000D03*
G04 #@! TD*
D13*
G04 #@! TO.C,R20*
X89935840Y-65240000D03*
X91734160Y-65240000D03*
G04 #@! TD*
D10*
G04 #@! TO.C,R2*
X114711640Y-59240000D03*
X116408360Y-59240000D03*
G04 #@! TD*
G04 #@! TO.C,R4*
X114711640Y-55340000D03*
X116408360Y-55340000D03*
G04 #@! TD*
D12*
G04 #@! TO.C,C11*
X97962600Y-46090000D03*
X94457400Y-46090000D03*
G04 #@! TD*
D14*
G04 #@! TO.C,R12*
X118560000Y-45291640D03*
X118560000Y-46988360D03*
G04 #@! TD*
D10*
G04 #@! TO.C,R3*
X113008360Y-55340000D03*
X111311640Y-55340000D03*
G04 #@! TD*
D14*
G04 #@! TO.C,R18*
X103660000Y-65488360D03*
X103660000Y-63791640D03*
G04 #@! TD*
D13*
G04 #@! TO.C,R14*
X101709160Y-48390000D03*
X99910840Y-48390000D03*
G04 #@! TD*
D15*
G04 #@! TO.C,U2*
X101735000Y-50110000D03*
X101735000Y-51380000D03*
X101735000Y-52650000D03*
X101735000Y-53920000D03*
X96335000Y-53920000D03*
X96335000Y-52650000D03*
X96335000Y-51380000D03*
X96335000Y-50110000D03*
G04 #@! TD*
G04 #@! TO.C,U3*
X101735000Y-62710000D03*
X101735000Y-63980000D03*
X101735000Y-65250000D03*
X101735000Y-66520000D03*
X96335000Y-66520000D03*
X96335000Y-65250000D03*
X96335000Y-63980000D03*
X96335000Y-62710000D03*
G04 #@! TD*
G04 #@! TO.C,U1*
X96335000Y-37510000D03*
X96335000Y-38780000D03*
X96335000Y-40050000D03*
X96335000Y-41320000D03*
X101735000Y-41320000D03*
X101735000Y-40050000D03*
X101735000Y-38780000D03*
X101735000Y-37510000D03*
G04 #@! TD*
D11*
G04 #@! TO.C,C13*
X93860000Y-66992600D03*
X93860000Y-63487400D03*
G04 #@! TD*
G04 #@! TO.C,C9*
X93860000Y-50887400D03*
X93860000Y-54392600D03*
G04 #@! TD*
D13*
G04 #@! TO.C,R19*
X99910840Y-60990000D03*
X101709160Y-60990000D03*
G04 #@! TD*
G04 #@! TO.C,R10*
X91734160Y-40040000D03*
X89935840Y-40040000D03*
G04 #@! TD*
G04 #@! TO.C,R9*
X101709160Y-35790000D03*
X99910840Y-35790000D03*
G04 #@! TD*
G04 #@! TO.C,R15*
X91734160Y-52240000D03*
X89935840Y-52240000D03*
G04 #@! TD*
D10*
G04 #@! TO.C,C6*
X96336640Y-35815000D03*
X98033360Y-35815000D03*
G04 #@! TD*
G04 #@! TO.C,C10*
X98033360Y-48415000D03*
X96336640Y-48415000D03*
G04 #@! TD*
G04 #@! TO.C,R6*
X114711640Y-50840000D03*
X116408360Y-50840000D03*
G04 #@! TD*
D14*
G04 #@! TO.C,R7*
X120660000Y-42788360D03*
X120660000Y-41091640D03*
G04 #@! TD*
G04 #@! TO.C,R8*
X103660000Y-40288360D03*
X103660000Y-38591640D03*
G04 #@! TD*
G04 #@! TO.C,R13*
X103660000Y-51191640D03*
X103660000Y-52888360D03*
G04 #@! TD*
G04 #@! TO.C,R17*
X120560000Y-49588360D03*
X120560000Y-47891640D03*
G04 #@! TD*
D10*
G04 #@! TO.C,R22*
X111111640Y-40963900D03*
X112808360Y-40963900D03*
G04 #@! TD*
G04 #@! TO.C,R23*
X116171360Y-40963900D03*
X114474640Y-40963900D03*
G04 #@! TD*
D16*
G04 #@! TO.C,R11*
X44960000Y-65339540D03*
X44960000Y-62540460D03*
G04 #@! TD*
G04 #@! TO.C,R21*
X69960000Y-62540460D03*
X69960000Y-65339540D03*
G04 #@! TD*
G04 #@! TO.C,R16*
X57460000Y-65339540D03*
X57460000Y-62540460D03*
G04 #@! TD*
D12*
G04 #@! TO.C,C8*
X82112600Y-54340000D03*
X78607400Y-54340000D03*
G04 #@! TD*
D17*
G04 #@! TO.C,Q1*
X36660000Y-39583420D03*
D18*
X39200000Y-28415040D03*
D17*
X41740000Y-39583420D03*
G04 #@! TD*
D12*
G04 #@! TO.C,C16*
X82112600Y-44840000D03*
X78607400Y-44840000D03*
G04 #@! TD*
G04 #@! TO.C,C12*
X82112600Y-49640000D03*
X78607400Y-49640000D03*
G04 #@! TD*
D17*
G04 #@! TO.C,Q6*
X61720000Y-62083420D03*
D18*
X64260000Y-50915040D03*
D17*
X66800000Y-62083420D03*
G04 #@! TD*
G04 #@! TO.C,Q5*
X66740000Y-39583420D03*
D18*
X64200000Y-28415040D03*
D17*
X61660000Y-39583420D03*
G04 #@! TD*
G04 #@! TO.C,Q4*
X49220000Y-62083420D03*
D18*
X51760000Y-50915040D03*
D17*
X54300000Y-62083420D03*
G04 #@! TD*
G04 #@! TO.C,Q2*
X41800000Y-62083420D03*
D18*
X39260000Y-50915040D03*
D17*
X36720000Y-62083420D03*
G04 #@! TD*
G04 #@! TO.C,Q3*
X49160000Y-39583420D03*
D18*
X51700000Y-28415040D03*
D17*
X54240000Y-39583420D03*
G04 #@! TD*
M02*
