G04 #@! TF.GenerationSoftware,KiCad,Pcbnew,5.0.0*
G04 #@! TF.CreationDate,2018-12-31T10:44:11-05:00*
G04 #@! TF.ProjectId,controller,636F6E74726F6C6C65722E6B69636164,rev?*
G04 #@! TF.SameCoordinates,Original*
G04 #@! TF.FileFunction,Copper,L2,Bot,Signal*
G04 #@! TF.FilePolarity,Positive*
%FSLAX46Y46*%
G04 Gerber Fmt 4.6, Leading zero omitted, Abs format (unit mm)*
G04 Created by KiCad (PCBNEW 5.0.0) date Mon Dec 31 10:44:11 2018*
%MOMM*%
%LPD*%
G01*
G04 APERTURE LIST*
G04 #@! TA.AperFunction,ViaPad*
%ADD10C,2.000000*%
G04 #@! TD*
G04 #@! TA.AperFunction,Conductor*
%ADD11C,0.500000*%
G04 #@! TD*
G04 #@! TA.AperFunction,Conductor*
%ADD12C,1.000000*%
G04 #@! TD*
G04 #@! TA.AperFunction,Conductor*
%ADD13C,0.254000*%
G04 #@! TD*
G04 APERTURE END LIST*
D10*
G04 #@! TO.N,/Sheet5BA83292/PHASE_HI*
X56398800Y-34473800D03*
X90075700Y-31640000D03*
G04 #@! TO.N,/Sheet5BA83292/PHASE_L*
X36720000Y-58977300D03*
X111260000Y-28340000D03*
G04 #@! TO.N,GND*
X116248500Y-46988400D03*
X117852300Y-42034300D03*
G04 #@! TO.N,+12V*
X92960000Y-58540000D03*
X92160000Y-34940000D03*
X93260000Y-45840000D03*
G04 #@! TO.N,/PHASE_3*
X90023800Y-59179900D03*
X70990000Y-49349000D03*
X114210400Y-48331100D03*
X114210400Y-68324500D03*
G04 #@! TO.N,/PHASE_LOW_IN_2*
X105215900Y-57713200D03*
X112535800Y-65033100D03*
G04 #@! TO.N,/PHASE_2*
X96079100Y-55857300D03*
X110585500Y-53510800D03*
X91060000Y-56240000D03*
X58460000Y-38040000D03*
G04 #@! TO.N,/PHASE_1*
X44152300Y-40761600D03*
X90190500Y-42325400D03*
X112076500Y-61006900D03*
G04 #@! TO.N,/PHASE_LOW_IN_1*
X105926300Y-40806000D03*
X121020000Y-57980000D03*
G04 #@! TO.N,+48V*
X111160000Y-38940000D03*
X45560000Y-27440000D03*
G04 #@! TO.N,/sheet5BA85AF7/PHASE_L*
X99234300Y-62873800D03*
X64089800Y-62083400D03*
G04 #@! TO.N,/sheet5BA85AF7/PHASE_HI*
X89981500Y-62856800D03*
X63690300Y-36796200D03*
G04 #@! TO.N,/sheet5BA85ABD/PHASE_L*
X99711500Y-44462300D03*
X71018100Y-55866100D03*
G04 #@! TO.N,/sheet5BA85ABD/PHASE_HI*
X66916300Y-35287600D03*
X90001900Y-54081400D03*
G04 #@! TO.N,/CURRENT_1*
X105470400Y-50699000D03*
X63587600Y-57133400D03*
G04 #@! TO.N,/CURRENT_2*
X105618900Y-48498600D03*
X59333400Y-60530800D03*
G04 #@! TO.N,/CURRENT_3*
X71830600Y-59344700D03*
X102987700Y-45945400D03*
G04 #@! TD*
D11*
G04 #@! TO.N,/Sheet5BA83292/PHASE_HI*
X89475700Y-31040000D02*
X90075700Y-31640000D01*
X59832600Y-31040000D02*
X89475700Y-31040000D01*
X56398800Y-34473800D02*
X59832600Y-31040000D01*
G04 #@! TO.N,/Sheet5BA83292/PHASE_L*
X36720000Y-58977300D02*
X36720000Y-39380000D01*
X51026011Y-25073989D02*
X107993989Y-25073989D01*
X36720000Y-39380000D02*
X51026011Y-25073989D01*
X107993989Y-25073989D02*
X111260000Y-28340000D01*
G04 #@! TO.N,GND*
X116248500Y-46988400D02*
X116248500Y-43638100D01*
X116248500Y-43638100D02*
X117852300Y-42034300D01*
D12*
G04 #@! TO.N,+12V*
X92960000Y-58540000D02*
X92960000Y-46140000D01*
X92960000Y-46140000D02*
X93260000Y-45840000D01*
X93260000Y-45840000D02*
X93260000Y-44425800D01*
X93260000Y-44425800D02*
X92060000Y-43225800D01*
X92060000Y-43225800D02*
X92060000Y-35040000D01*
X92060000Y-35040000D02*
X92160000Y-34940000D01*
D11*
G04 #@! TO.N,/PHASE_3*
X114210400Y-48331100D02*
X114210400Y-68324500D01*
X90023800Y-59179900D02*
X80820900Y-59179900D01*
X80820900Y-59179900D02*
X70990000Y-49349000D01*
G04 #@! TO.N,/PHASE_LOW_IN_2*
X111535801Y-64033101D02*
X112535800Y-65033100D01*
X109272701Y-61770001D02*
X111535801Y-64033101D01*
X107419999Y-61770001D02*
X109272701Y-61770001D01*
X105215900Y-59565902D02*
X107419999Y-61770001D01*
X105215900Y-57713200D02*
X105215900Y-59565902D01*
G04 #@! TO.N,/PHASE_2*
X91060000Y-56240000D02*
X89645787Y-56240000D01*
X64386301Y-35346199D02*
X60753801Y-35346199D01*
X89645787Y-56240000D02*
X89585786Y-56179999D01*
X89585786Y-56179999D02*
X85220101Y-56179999D01*
X85220101Y-56179999D02*
X64386301Y-35346199D01*
X58460000Y-37640000D02*
X58460000Y-38040000D01*
X60753801Y-35346199D02*
X58460000Y-37640000D01*
X96079100Y-50790700D02*
X96079100Y-55857300D01*
X102384200Y-44485600D02*
X96079100Y-50790700D01*
X103657200Y-44485600D02*
X102384200Y-44485600D01*
X110585500Y-53510800D02*
X110585500Y-48535498D01*
X105701601Y-46530001D02*
X103657200Y-44485600D01*
X110585500Y-48535498D02*
X108580003Y-46530001D01*
X108580003Y-46530001D02*
X105701601Y-46530001D01*
G04 #@! TO.N,/PHASE_1*
X54054400Y-30859500D02*
X44152300Y-40761600D01*
X91525700Y-33438200D02*
X91525700Y-26831800D01*
X91525700Y-33438200D02*
X90190500Y-34773400D01*
X90190500Y-34773400D02*
X90190500Y-42325400D01*
X59139901Y-25773999D02*
X54054400Y-30859500D01*
X90467899Y-25773999D02*
X59139901Y-25773999D01*
X91525700Y-26831800D02*
X90467899Y-25773999D01*
X93605000Y-33438200D02*
X91525700Y-33438200D01*
X104196799Y-44029999D02*
X93605000Y-33438200D01*
X108620001Y-44029999D02*
X104196799Y-44029999D01*
X109270001Y-45250001D02*
X109270001Y-44679999D01*
X112076500Y-48056500D02*
X109270001Y-45250001D01*
X109270001Y-44679999D02*
X108620001Y-44029999D01*
X112076500Y-61006900D02*
X112076500Y-48056500D01*
G04 #@! TO.N,/PHASE_LOW_IN_1*
X105926300Y-40806000D02*
X106176300Y-40556000D01*
X118458600Y-40556000D02*
X121020000Y-43117400D01*
X121020000Y-43117400D02*
X121020000Y-57980000D01*
X117184598Y-40556000D02*
X118458600Y-40556000D01*
X116290597Y-41450001D02*
X117184598Y-40556000D01*
X106570301Y-41450001D02*
X116290597Y-41450001D01*
X105926300Y-40806000D02*
X106570301Y-41450001D01*
G04 #@! TO.N,+48V*
X109439981Y-24373979D02*
X48726021Y-24373979D01*
X112710001Y-27643999D02*
X109439981Y-24373979D01*
X112710001Y-37389999D02*
X112710001Y-27643999D01*
X111160000Y-38940000D02*
X112710001Y-37389999D01*
X48726021Y-24373979D02*
X45660000Y-27440000D01*
X45560000Y-27440000D02*
X45660000Y-27440000D01*
G04 #@! TO.N,/sheet5BA85AF7/PHASE_L*
X64089800Y-62083400D02*
X67714100Y-65707700D01*
X67714100Y-65707700D02*
X96400400Y-65707700D01*
X96400400Y-65707700D02*
X99234300Y-62873800D01*
G04 #@! TO.N,/sheet5BA85AF7/PHASE_HI*
X63690300Y-36796200D02*
X63690300Y-53372600D01*
X63690300Y-53372600D02*
X73174500Y-62856800D01*
X73174500Y-62856800D02*
X89981500Y-62856800D01*
G04 #@! TO.N,/sheet5BA85ABD/PHASE_L*
X71018100Y-55866100D02*
X75806500Y-60654500D01*
X75806500Y-60654500D02*
X92911000Y-60654500D01*
X92911000Y-60654500D02*
X94449000Y-59116500D01*
X94449000Y-59116500D02*
X94449000Y-49724800D01*
X94449000Y-49724800D02*
X99711500Y-44462300D01*
G04 #@! TO.N,/sheet5BA85ABD/PHASE_HI*
X66916300Y-35287600D02*
X85710100Y-54081400D01*
X85710100Y-54081400D02*
X90001900Y-54081400D01*
G04 #@! TO.N,/CURRENT_1*
X63587600Y-57133400D02*
X70761300Y-64307100D01*
X70761300Y-64307100D02*
X91862300Y-64307100D01*
X91862300Y-64307100D02*
X105470400Y-50699000D01*
G04 #@! TO.N,/CURRENT_2*
X59333400Y-60530800D02*
X64666300Y-60530800D01*
X64666300Y-60530800D02*
X69142900Y-65007400D01*
X69142900Y-65007400D02*
X93213200Y-65007400D01*
X93213200Y-65007400D02*
X106920800Y-51299800D01*
X106920800Y-51299800D02*
X106920800Y-49800500D01*
X106920800Y-49800500D02*
X105618900Y-48498600D01*
G04 #@! TO.N,/CURRENT_3*
X71830600Y-59344700D02*
X73892300Y-61406400D01*
X73892300Y-61406400D02*
X93218800Y-61406400D01*
X93218800Y-61406400D02*
X102987700Y-51637500D01*
X102987700Y-51637500D02*
X102987700Y-45945400D01*
G04 #@! TD*
D13*
G04 #@! TO.N,GND*
G36*
X125333000Y-72413000D02*
X33187000Y-72413000D01*
X33187000Y-58613887D01*
X34893000Y-58613887D01*
X34893000Y-59340713D01*
X35171144Y-60012212D01*
X35685088Y-60526156D01*
X36356587Y-60804300D01*
X37083413Y-60804300D01*
X37754912Y-60526156D01*
X38268856Y-60012212D01*
X38547000Y-59340713D01*
X38547000Y-58613887D01*
X38268856Y-57942388D01*
X37797000Y-57470532D01*
X37797000Y-43546411D01*
X47784030Y-43546411D01*
X47784030Y-44133589D01*
X48008733Y-44676070D01*
X48423930Y-45091267D01*
X48966411Y-45315970D01*
X49553589Y-45315970D01*
X50096070Y-45091267D01*
X50511267Y-44676070D01*
X50735970Y-44133589D01*
X50735970Y-43546411D01*
X52782750Y-43546411D01*
X52782750Y-44133589D01*
X53007453Y-44676070D01*
X53422650Y-45091267D01*
X53965131Y-45315970D01*
X54552309Y-45315970D01*
X55094790Y-45091267D01*
X55509987Y-44676070D01*
X55734690Y-44133589D01*
X55734690Y-43546411D01*
X57784010Y-43546411D01*
X57784010Y-44133589D01*
X58008713Y-44676070D01*
X58423910Y-45091267D01*
X58966391Y-45315970D01*
X59553569Y-45315970D01*
X60096050Y-45091267D01*
X60511247Y-44676070D01*
X60735950Y-44133589D01*
X60735950Y-43546411D01*
X60511247Y-43003930D01*
X60096050Y-42588733D01*
X59553569Y-42364030D01*
X58966391Y-42364030D01*
X58423910Y-42588733D01*
X58008713Y-43003930D01*
X57784010Y-43546411D01*
X55734690Y-43546411D01*
X55509987Y-43003930D01*
X55094790Y-42588733D01*
X54552309Y-42364030D01*
X53965131Y-42364030D01*
X53422650Y-42588733D01*
X53007453Y-43003930D01*
X52782750Y-43546411D01*
X50735970Y-43546411D01*
X50511267Y-43003930D01*
X50096070Y-42588733D01*
X49553589Y-42364030D01*
X48966411Y-42364030D01*
X48423930Y-42588733D01*
X48008733Y-43003930D01*
X47784030Y-43546411D01*
X37797000Y-43546411D01*
X37797000Y-39826107D01*
X51472119Y-26150989D01*
X57239803Y-26150989D01*
X53367853Y-30022940D01*
X53367850Y-30022942D01*
X44456193Y-38934600D01*
X43788887Y-38934600D01*
X43117388Y-39212744D01*
X42603444Y-39726688D01*
X42325300Y-40398187D01*
X42325300Y-41125013D01*
X42603444Y-41796512D01*
X43117388Y-42310456D01*
X43788887Y-42588600D01*
X44515713Y-42588600D01*
X45187212Y-42310456D01*
X45701156Y-41796512D01*
X45979300Y-41125013D01*
X45979300Y-40457707D01*
X54890958Y-31546050D01*
X54890960Y-31546047D01*
X59586009Y-26850999D01*
X75823831Y-26850999D01*
X75784310Y-26946411D01*
X75784310Y-27533589D01*
X76009013Y-28076070D01*
X76424210Y-28491267D01*
X76966691Y-28715970D01*
X77553869Y-28715970D01*
X78096350Y-28491267D01*
X78511547Y-28076070D01*
X78736250Y-27533589D01*
X78736250Y-26946411D01*
X78696729Y-26850999D01*
X80822551Y-26850999D01*
X80783030Y-26946411D01*
X80783030Y-27533589D01*
X81007733Y-28076070D01*
X81422930Y-28491267D01*
X81965411Y-28715970D01*
X82552589Y-28715970D01*
X83095070Y-28491267D01*
X83510267Y-28076070D01*
X83734970Y-27533589D01*
X83734970Y-26946411D01*
X83695449Y-26850999D01*
X90021792Y-26850999D01*
X90448701Y-27277909D01*
X90448701Y-29816971D01*
X90439113Y-29813000D01*
X89712287Y-29813000D01*
X89350155Y-29963000D01*
X59938668Y-29963000D01*
X59832600Y-29941902D01*
X59726532Y-29963000D01*
X59726528Y-29963000D01*
X59475377Y-30012957D01*
X59412375Y-30025489D01*
X59146050Y-30203442D01*
X59146049Y-30203443D01*
X59056127Y-30263527D01*
X58996043Y-30353449D01*
X56702693Y-32646800D01*
X56035387Y-32646800D01*
X55363888Y-32924944D01*
X54849944Y-33438888D01*
X54571800Y-34110387D01*
X54571800Y-34837213D01*
X54849944Y-35508712D01*
X55363888Y-36022656D01*
X56035387Y-36300800D01*
X56762213Y-36300800D01*
X57433712Y-36022656D01*
X57947656Y-35508712D01*
X58225800Y-34837213D01*
X58225800Y-34169907D01*
X60278708Y-32117000D01*
X88295749Y-32117000D01*
X88526844Y-32674912D01*
X89040788Y-33188856D01*
X89712287Y-33467000D01*
X89973793Y-33467000D01*
X89503952Y-33936841D01*
X89414027Y-33996927D01*
X89175989Y-34353177D01*
X89113500Y-34667329D01*
X89113500Y-34667334D01*
X89092402Y-34773400D01*
X89113500Y-34879467D01*
X89113501Y-40818631D01*
X88641644Y-41290488D01*
X88363500Y-41961987D01*
X88363500Y-42688813D01*
X88641644Y-43360312D01*
X89155588Y-43874256D01*
X89827087Y-44152400D01*
X90553913Y-44152400D01*
X90968439Y-43980698D01*
X91103287Y-44182512D01*
X91214085Y-44256546D01*
X91736886Y-44779346D01*
X91711144Y-44805088D01*
X91433000Y-45476587D01*
X91433000Y-46203413D01*
X91633001Y-46686258D01*
X91633000Y-53245044D01*
X91550756Y-53046488D01*
X91036812Y-52532544D01*
X90365313Y-52254400D01*
X89638487Y-52254400D01*
X88966988Y-52532544D01*
X88495132Y-53004400D01*
X86156208Y-53004400D01*
X73857960Y-40706152D01*
X74963000Y-40706152D01*
X74963000Y-41273848D01*
X75180247Y-41798331D01*
X75581669Y-42199753D01*
X76106152Y-42417000D01*
X76673848Y-42417000D01*
X77198331Y-42199753D01*
X77599753Y-41798331D01*
X77817000Y-41273848D01*
X77817000Y-40706152D01*
X82463000Y-40706152D01*
X82463000Y-41273848D01*
X82680247Y-41798331D01*
X83081669Y-42199753D01*
X83606152Y-42417000D01*
X84173848Y-42417000D01*
X84698331Y-42199753D01*
X85099753Y-41798331D01*
X85317000Y-41273848D01*
X85317000Y-40706152D01*
X85099753Y-40181669D01*
X84698331Y-39780247D01*
X84173848Y-39563000D01*
X83606152Y-39563000D01*
X83081669Y-39780247D01*
X82680247Y-40181669D01*
X82463000Y-40706152D01*
X77817000Y-40706152D01*
X77599753Y-40181669D01*
X77198331Y-39780247D01*
X76673848Y-39563000D01*
X76106152Y-39563000D01*
X75581669Y-39780247D01*
X75180247Y-40181669D01*
X74963000Y-40706152D01*
X73857960Y-40706152D01*
X68743300Y-35591493D01*
X68743300Y-34924187D01*
X68465156Y-34252688D01*
X67951212Y-33738744D01*
X67279713Y-33460600D01*
X66552887Y-33460600D01*
X65881388Y-33738744D01*
X65367444Y-34252688D01*
X65208053Y-34637491D01*
X65162774Y-34569726D01*
X64806525Y-34331688D01*
X64492373Y-34269199D01*
X64492367Y-34269199D01*
X64386301Y-34248101D01*
X64280235Y-34269199D01*
X60859867Y-34269199D01*
X60753800Y-34248101D01*
X60647734Y-34269199D01*
X60647729Y-34269199D01*
X60333577Y-34331688D01*
X60193984Y-34424961D01*
X60067252Y-34509641D01*
X59977328Y-34569726D01*
X59917244Y-34659648D01*
X58363893Y-36213000D01*
X58096587Y-36213000D01*
X57425088Y-36491144D01*
X56911144Y-37005088D01*
X56633000Y-37676587D01*
X56633000Y-38403413D01*
X56911144Y-39074912D01*
X57425088Y-39588856D01*
X58096587Y-39867000D01*
X58823413Y-39867000D01*
X59494912Y-39588856D01*
X60008856Y-39074912D01*
X60287000Y-38403413D01*
X60287000Y-37676587D01*
X60187276Y-37435832D01*
X61199909Y-36423199D01*
X61867271Y-36423199D01*
X61863300Y-36432787D01*
X61863300Y-37159613D01*
X62141444Y-37831112D01*
X62613300Y-38302968D01*
X62613301Y-53266529D01*
X62592202Y-53372600D01*
X62613301Y-53478672D01*
X62660904Y-53717987D01*
X62675790Y-53792824D01*
X62853742Y-54059149D01*
X62853744Y-54059151D01*
X62913828Y-54149073D01*
X63003750Y-54209157D01*
X64207045Y-55412452D01*
X63951013Y-55306400D01*
X63224187Y-55306400D01*
X62552688Y-55584544D01*
X62038744Y-56098488D01*
X61760600Y-56769987D01*
X61760600Y-57496813D01*
X62038744Y-58168312D01*
X62552688Y-58682256D01*
X63224187Y-58960400D01*
X63891493Y-58960400D01*
X64384893Y-59453800D01*
X60840168Y-59453800D01*
X60368312Y-58981944D01*
X59696813Y-58703800D01*
X58969987Y-58703800D01*
X58298488Y-58981944D01*
X57784544Y-59495888D01*
X57506400Y-60167387D01*
X57506400Y-60894213D01*
X57784544Y-61565712D01*
X58298488Y-62079656D01*
X58969987Y-62357800D01*
X59696813Y-62357800D01*
X60368312Y-62079656D01*
X60840168Y-61607800D01*
X62309269Y-61607800D01*
X62262800Y-61719987D01*
X62262800Y-62446813D01*
X62540944Y-63118312D01*
X63054888Y-63632256D01*
X63726387Y-63910400D01*
X64393693Y-63910400D01*
X66877543Y-66394251D01*
X66937627Y-66484173D01*
X67027549Y-66544257D01*
X67027550Y-66544258D01*
X67167084Y-66637491D01*
X67293876Y-66722211D01*
X67608028Y-66784700D01*
X67608033Y-66784700D01*
X67714099Y-66805798D01*
X67820166Y-66784700D01*
X96294334Y-66784700D01*
X96400400Y-66805798D01*
X96506466Y-66784700D01*
X96506472Y-66784700D01*
X96820624Y-66722211D01*
X97176873Y-66484173D01*
X97236959Y-66394248D01*
X98275272Y-65355935D01*
X106793000Y-65355935D01*
X106793000Y-65844065D01*
X106979800Y-66295039D01*
X107324961Y-66640200D01*
X107775935Y-66827000D01*
X108264065Y-66827000D01*
X108715039Y-66640200D01*
X109060200Y-66295039D01*
X109247000Y-65844065D01*
X109247000Y-65355935D01*
X109060200Y-64904961D01*
X108715039Y-64559800D01*
X108264065Y-64373000D01*
X107775935Y-64373000D01*
X107324961Y-64559800D01*
X106979800Y-64904961D01*
X106793000Y-65355935D01*
X98275272Y-65355935D01*
X98930408Y-64700800D01*
X99597713Y-64700800D01*
X100269212Y-64422656D01*
X100783156Y-63908712D01*
X101061300Y-63237213D01*
X101061300Y-62510387D01*
X100783156Y-61838888D01*
X100269212Y-61324944D01*
X99597713Y-61046800D01*
X98870887Y-61046800D01*
X98573885Y-61169822D01*
X104547772Y-55195935D01*
X106793000Y-55195935D01*
X106793000Y-55684065D01*
X106979800Y-56135039D01*
X107324961Y-56480200D01*
X107775935Y-56667000D01*
X108264065Y-56667000D01*
X108715039Y-56480200D01*
X109060200Y-56135039D01*
X109247000Y-55684065D01*
X109247000Y-55195935D01*
X109060200Y-54744961D01*
X108715039Y-54399800D01*
X108264065Y-54213000D01*
X107775935Y-54213000D01*
X107324961Y-54399800D01*
X106979800Y-54744961D01*
X106793000Y-55195935D01*
X104547772Y-55195935D01*
X106793000Y-52950708D01*
X106793000Y-53144065D01*
X106979800Y-53595039D01*
X107324961Y-53940200D01*
X107775935Y-54127000D01*
X108264065Y-54127000D01*
X108715039Y-53940200D01*
X108765098Y-53890141D01*
X109036644Y-54545712D01*
X109550588Y-55059656D01*
X110222087Y-55337800D01*
X110948913Y-55337800D01*
X110999500Y-55316846D01*
X110999500Y-59500132D01*
X110527644Y-59971988D01*
X110249500Y-60643487D01*
X110249500Y-61223693D01*
X110109260Y-61083453D01*
X110049174Y-60993528D01*
X109692925Y-60755490D01*
X109378773Y-60693001D01*
X109378767Y-60693001D01*
X109272701Y-60671903D01*
X109247000Y-60677015D01*
X109247000Y-60275935D01*
X109060200Y-59824961D01*
X108715039Y-59479800D01*
X108264065Y-59293000D01*
X107775935Y-59293000D01*
X107324961Y-59479800D01*
X106988933Y-59815828D01*
X106342987Y-59169881D01*
X106764756Y-58748112D01*
X106887412Y-58451995D01*
X106979800Y-58675039D01*
X107324961Y-59020200D01*
X107775935Y-59207000D01*
X108264065Y-59207000D01*
X108715039Y-59020200D01*
X109060200Y-58675039D01*
X109247000Y-58224065D01*
X109247000Y-57735935D01*
X109060200Y-57284961D01*
X108715039Y-56939800D01*
X108264065Y-56753000D01*
X107775935Y-56753000D01*
X107324961Y-56939800D01*
X107005431Y-57259330D01*
X106764756Y-56678288D01*
X106250812Y-56164344D01*
X105579313Y-55886200D01*
X104852487Y-55886200D01*
X104180988Y-56164344D01*
X103667044Y-56678288D01*
X103388900Y-57349787D01*
X103388900Y-58076613D01*
X103667044Y-58748112D01*
X104138901Y-59219969D01*
X104138901Y-59459831D01*
X104117802Y-59565902D01*
X104138901Y-59671974D01*
X104169332Y-59824961D01*
X104201390Y-59986126D01*
X104379342Y-60252451D01*
X104379344Y-60252453D01*
X104439428Y-60342375D01*
X104529350Y-60402459D01*
X106583442Y-62456552D01*
X106643526Y-62546474D01*
X106733448Y-62606558D01*
X106733449Y-62606559D01*
X106848017Y-62683111D01*
X106793000Y-62815935D01*
X106793000Y-63304065D01*
X106979800Y-63755039D01*
X107324961Y-64100200D01*
X107775935Y-64287000D01*
X108264065Y-64287000D01*
X108715039Y-64100200D01*
X109060200Y-63755039D01*
X109247000Y-63304065D01*
X109247000Y-63267407D01*
X110708800Y-64729208D01*
X110708800Y-65396513D01*
X110986944Y-66068012D01*
X111500888Y-66581956D01*
X112172387Y-66860100D01*
X112899213Y-66860100D01*
X113133401Y-66763096D01*
X113133401Y-66817731D01*
X112661544Y-67289588D01*
X112383400Y-67961087D01*
X112383400Y-68687913D01*
X112661544Y-69359412D01*
X113175488Y-69873356D01*
X113846987Y-70151500D01*
X114573813Y-70151500D01*
X115245312Y-69873356D01*
X115759256Y-69359412D01*
X116037400Y-68687913D01*
X116037400Y-67961087D01*
X115759256Y-67289588D01*
X115287400Y-66817732D01*
X115287400Y-65355935D01*
X122033000Y-65355935D01*
X122033000Y-65844065D01*
X122219800Y-66295039D01*
X122564961Y-66640200D01*
X123015935Y-66827000D01*
X123504065Y-66827000D01*
X123955039Y-66640200D01*
X124300200Y-66295039D01*
X124487000Y-65844065D01*
X124487000Y-65355935D01*
X124300200Y-64904961D01*
X123955039Y-64559800D01*
X123504065Y-64373000D01*
X123015935Y-64373000D01*
X122564961Y-64559800D01*
X122219800Y-64904961D01*
X122033000Y-65355935D01*
X115287400Y-65355935D01*
X115287400Y-62815935D01*
X122033000Y-62815935D01*
X122033000Y-63304065D01*
X122219800Y-63755039D01*
X122564961Y-64100200D01*
X123015935Y-64287000D01*
X123504065Y-64287000D01*
X123955039Y-64100200D01*
X124300200Y-63755039D01*
X124487000Y-63304065D01*
X124487000Y-62815935D01*
X124300200Y-62364961D01*
X123955039Y-62019800D01*
X123504065Y-61833000D01*
X123015935Y-61833000D01*
X122564961Y-62019800D01*
X122219800Y-62364961D01*
X122033000Y-62815935D01*
X115287400Y-62815935D01*
X115287400Y-60275935D01*
X122033000Y-60275935D01*
X122033000Y-60764065D01*
X122219800Y-61215039D01*
X122564961Y-61560200D01*
X123015935Y-61747000D01*
X123504065Y-61747000D01*
X123955039Y-61560200D01*
X124300200Y-61215039D01*
X124487000Y-60764065D01*
X124487000Y-60275935D01*
X124300200Y-59824961D01*
X123955039Y-59479800D01*
X123504065Y-59293000D01*
X123015935Y-59293000D01*
X122564961Y-59479800D01*
X122219800Y-59824961D01*
X122033000Y-60275935D01*
X115287400Y-60275935D01*
X115287400Y-49837868D01*
X115759256Y-49366012D01*
X116037400Y-48694513D01*
X116037400Y-47967687D01*
X115759256Y-47296188D01*
X115245312Y-46782244D01*
X114573813Y-46504100D01*
X113846987Y-46504100D01*
X113175488Y-46782244D01*
X112750420Y-47207312D01*
X110347001Y-44803894D01*
X110347001Y-44786065D01*
X110368099Y-44679999D01*
X110347001Y-44573932D01*
X110347001Y-44573928D01*
X110284512Y-44259776D01*
X110271165Y-44239800D01*
X110106559Y-43993450D01*
X110046474Y-43903526D01*
X109956549Y-43843440D01*
X109456560Y-43343451D01*
X109396474Y-43253526D01*
X109191982Y-43116889D01*
X109247000Y-42984065D01*
X109247000Y-42527001D01*
X116184531Y-42527001D01*
X116290597Y-42548099D01*
X116396663Y-42527001D01*
X116396669Y-42527001D01*
X116710821Y-42464512D01*
X117067070Y-42226474D01*
X117127156Y-42136550D01*
X117630706Y-41633000D01*
X118012493Y-41633000D01*
X119943000Y-43563508D01*
X119943001Y-56473231D01*
X119471144Y-56945088D01*
X119193000Y-57616587D01*
X119193000Y-58343413D01*
X119471144Y-59014912D01*
X119985088Y-59528856D01*
X120656587Y-59807000D01*
X121383413Y-59807000D01*
X122054912Y-59528856D01*
X122564265Y-59019504D01*
X122564961Y-59020200D01*
X123015935Y-59207000D01*
X123504065Y-59207000D01*
X123955039Y-59020200D01*
X124300200Y-58675039D01*
X124487000Y-58224065D01*
X124487000Y-57735935D01*
X124300200Y-57284961D01*
X123955039Y-56939800D01*
X123504065Y-56753000D01*
X123015935Y-56753000D01*
X122564961Y-56939800D01*
X122564265Y-56940497D01*
X122097000Y-56473232D01*
X122097000Y-55838574D01*
X122219800Y-56135039D01*
X122564961Y-56480200D01*
X123015935Y-56667000D01*
X123504065Y-56667000D01*
X123955039Y-56480200D01*
X124300200Y-56135039D01*
X124487000Y-55684065D01*
X124487000Y-55195935D01*
X124300200Y-54744961D01*
X123955039Y-54399800D01*
X123504065Y-54213000D01*
X123015935Y-54213000D01*
X122564961Y-54399800D01*
X122219800Y-54744961D01*
X122097000Y-55041426D01*
X122097000Y-53298574D01*
X122219800Y-53595039D01*
X122564961Y-53940200D01*
X123015935Y-54127000D01*
X123504065Y-54127000D01*
X123955039Y-53940200D01*
X124300200Y-53595039D01*
X124487000Y-53144065D01*
X124487000Y-52655935D01*
X124300200Y-52204961D01*
X123955039Y-51859800D01*
X123504065Y-51673000D01*
X123015935Y-51673000D01*
X122564961Y-51859800D01*
X122219800Y-52204961D01*
X122097000Y-52501426D01*
X122097000Y-50758574D01*
X122219800Y-51055039D01*
X122564961Y-51400200D01*
X123015935Y-51587000D01*
X123504065Y-51587000D01*
X123955039Y-51400200D01*
X124300200Y-51055039D01*
X124487000Y-50604065D01*
X124487000Y-50115935D01*
X124300200Y-49664961D01*
X123955039Y-49319800D01*
X123504065Y-49133000D01*
X123015935Y-49133000D01*
X122564961Y-49319800D01*
X122219800Y-49664961D01*
X122097000Y-49961426D01*
X122097000Y-48218574D01*
X122219800Y-48515039D01*
X122564961Y-48860200D01*
X123015935Y-49047000D01*
X123504065Y-49047000D01*
X123955039Y-48860200D01*
X124300200Y-48515039D01*
X124487000Y-48064065D01*
X124487000Y-47575935D01*
X124300200Y-47124961D01*
X123955039Y-46779800D01*
X123504065Y-46593000D01*
X123015935Y-46593000D01*
X122564961Y-46779800D01*
X122219800Y-47124961D01*
X122097000Y-47421426D01*
X122097000Y-45678574D01*
X122219800Y-45975039D01*
X122564961Y-46320200D01*
X123015935Y-46507000D01*
X123504065Y-46507000D01*
X123955039Y-46320200D01*
X124300200Y-45975039D01*
X124487000Y-45524065D01*
X124487000Y-45035935D01*
X124300200Y-44584961D01*
X123955039Y-44239800D01*
X123504065Y-44053000D01*
X123015935Y-44053000D01*
X122564961Y-44239800D01*
X122219800Y-44584961D01*
X122097000Y-44881426D01*
X122097000Y-43223468D01*
X122108408Y-43166116D01*
X122219800Y-43435039D01*
X122564961Y-43780200D01*
X123015935Y-43967000D01*
X123504065Y-43967000D01*
X123955039Y-43780200D01*
X124300200Y-43435039D01*
X124487000Y-42984065D01*
X124487000Y-42495935D01*
X124300200Y-42044961D01*
X123955039Y-41699800D01*
X123504065Y-41513000D01*
X123015935Y-41513000D01*
X122564961Y-41699800D01*
X122219800Y-42044961D01*
X122033000Y-42495935D01*
X122033000Y-42694914D01*
X121856558Y-42430850D01*
X121856557Y-42430849D01*
X121796473Y-42340927D01*
X121706551Y-42280843D01*
X119381643Y-39955935D01*
X122033000Y-39955935D01*
X122033000Y-40444065D01*
X122219800Y-40895039D01*
X122564961Y-41240200D01*
X123015935Y-41427000D01*
X123504065Y-41427000D01*
X123955039Y-41240200D01*
X124300200Y-40895039D01*
X124487000Y-40444065D01*
X124487000Y-39955935D01*
X124300200Y-39504961D01*
X123955039Y-39159800D01*
X123504065Y-38973000D01*
X123015935Y-38973000D01*
X122564961Y-39159800D01*
X122219800Y-39504961D01*
X122033000Y-39955935D01*
X119381643Y-39955935D01*
X119295159Y-39869452D01*
X119235073Y-39779527D01*
X118878824Y-39541489D01*
X118564672Y-39479000D01*
X118564666Y-39479000D01*
X118458600Y-39457902D01*
X118352534Y-39479000D01*
X117290664Y-39479000D01*
X117184597Y-39457902D01*
X117078531Y-39479000D01*
X117078526Y-39479000D01*
X116764374Y-39541489D01*
X116522368Y-39703192D01*
X116498049Y-39719442D01*
X116408125Y-39779527D01*
X116348041Y-39869449D01*
X115844490Y-40373001D01*
X112310767Y-40373001D01*
X112708856Y-39974912D01*
X112987000Y-39303413D01*
X112987000Y-38636108D01*
X113396552Y-38226556D01*
X113486474Y-38166472D01*
X113724512Y-37810223D01*
X113787001Y-37496071D01*
X113787001Y-37496066D01*
X113802940Y-37415935D01*
X122033000Y-37415935D01*
X122033000Y-37904065D01*
X122219800Y-38355039D01*
X122564961Y-38700200D01*
X123015935Y-38887000D01*
X123504065Y-38887000D01*
X123955039Y-38700200D01*
X124300200Y-38355039D01*
X124487000Y-37904065D01*
X124487000Y-37415935D01*
X124300200Y-36964961D01*
X123955039Y-36619800D01*
X123504065Y-36433000D01*
X123015935Y-36433000D01*
X122564961Y-36619800D01*
X122219800Y-36964961D01*
X122033000Y-37415935D01*
X113802940Y-37415935D01*
X113808099Y-37390000D01*
X113787001Y-37283933D01*
X113787001Y-34875935D01*
X122033000Y-34875935D01*
X122033000Y-35364065D01*
X122219800Y-35815039D01*
X122564961Y-36160200D01*
X123015935Y-36347000D01*
X123504065Y-36347000D01*
X123955039Y-36160200D01*
X124300200Y-35815039D01*
X124487000Y-35364065D01*
X124487000Y-34875935D01*
X124300200Y-34424961D01*
X123955039Y-34079800D01*
X123504065Y-33893000D01*
X123015935Y-33893000D01*
X122564961Y-34079800D01*
X122219800Y-34424961D01*
X122033000Y-34875935D01*
X113787001Y-34875935D01*
X113787001Y-32335935D01*
X122033000Y-32335935D01*
X122033000Y-32824065D01*
X122219800Y-33275039D01*
X122564961Y-33620200D01*
X123015935Y-33807000D01*
X123504065Y-33807000D01*
X123955039Y-33620200D01*
X124300200Y-33275039D01*
X124487000Y-32824065D01*
X124487000Y-32335935D01*
X124300200Y-31884961D01*
X123955039Y-31539800D01*
X123504065Y-31353000D01*
X123015935Y-31353000D01*
X122564961Y-31539800D01*
X122219800Y-31884961D01*
X122033000Y-32335935D01*
X113787001Y-32335935D01*
X113787001Y-29795935D01*
X122033000Y-29795935D01*
X122033000Y-30284065D01*
X122219800Y-30735039D01*
X122564961Y-31080200D01*
X123015935Y-31267000D01*
X123504065Y-31267000D01*
X123955039Y-31080200D01*
X124300200Y-30735039D01*
X124487000Y-30284065D01*
X124487000Y-29795935D01*
X124300200Y-29344961D01*
X123955039Y-28999800D01*
X123504065Y-28813000D01*
X123015935Y-28813000D01*
X122564961Y-28999800D01*
X122219800Y-29344961D01*
X122033000Y-29795935D01*
X113787001Y-29795935D01*
X113787001Y-27750067D01*
X113808099Y-27643999D01*
X113787001Y-27537931D01*
X113787001Y-27537927D01*
X113724512Y-27223775D01*
X113724512Y-27223774D01*
X113546559Y-26957449D01*
X113546558Y-26957448D01*
X113486474Y-26867526D01*
X113396552Y-26807442D01*
X110276540Y-23687431D01*
X110216454Y-23597506D01*
X109860205Y-23359468D01*
X109546053Y-23296979D01*
X109546047Y-23296979D01*
X109439981Y-23275881D01*
X109333915Y-23296979D01*
X48832087Y-23296979D01*
X48726020Y-23275881D01*
X48619954Y-23296979D01*
X48619949Y-23296979D01*
X48305797Y-23359468D01*
X48305795Y-23359469D01*
X48305796Y-23359469D01*
X48039472Y-23537421D01*
X47949548Y-23597506D01*
X47889464Y-23687428D01*
X45952036Y-25624856D01*
X45923413Y-25613000D01*
X45196587Y-25613000D01*
X44525088Y-25891144D01*
X44011144Y-26405088D01*
X43733000Y-27076587D01*
X43733000Y-27803413D01*
X44011144Y-28474912D01*
X44525088Y-28988856D01*
X45196587Y-29267000D01*
X45309892Y-29267000D01*
X36033450Y-38543443D01*
X35943528Y-38603527D01*
X35883444Y-38693449D01*
X35883442Y-38693451D01*
X35705490Y-38959776D01*
X35621902Y-39380000D01*
X35643001Y-39486071D01*
X35643000Y-57470532D01*
X35171144Y-57942388D01*
X34893000Y-58613887D01*
X33187000Y-58613887D01*
X33187000Y-20767000D01*
X125333001Y-20767000D01*
X125333000Y-72413000D01*
X125333000Y-72413000D01*
G37*
X125333000Y-72413000D02*
X33187000Y-72413000D01*
X33187000Y-58613887D01*
X34893000Y-58613887D01*
X34893000Y-59340713D01*
X35171144Y-60012212D01*
X35685088Y-60526156D01*
X36356587Y-60804300D01*
X37083413Y-60804300D01*
X37754912Y-60526156D01*
X38268856Y-60012212D01*
X38547000Y-59340713D01*
X38547000Y-58613887D01*
X38268856Y-57942388D01*
X37797000Y-57470532D01*
X37797000Y-43546411D01*
X47784030Y-43546411D01*
X47784030Y-44133589D01*
X48008733Y-44676070D01*
X48423930Y-45091267D01*
X48966411Y-45315970D01*
X49553589Y-45315970D01*
X50096070Y-45091267D01*
X50511267Y-44676070D01*
X50735970Y-44133589D01*
X50735970Y-43546411D01*
X52782750Y-43546411D01*
X52782750Y-44133589D01*
X53007453Y-44676070D01*
X53422650Y-45091267D01*
X53965131Y-45315970D01*
X54552309Y-45315970D01*
X55094790Y-45091267D01*
X55509987Y-44676070D01*
X55734690Y-44133589D01*
X55734690Y-43546411D01*
X57784010Y-43546411D01*
X57784010Y-44133589D01*
X58008713Y-44676070D01*
X58423910Y-45091267D01*
X58966391Y-45315970D01*
X59553569Y-45315970D01*
X60096050Y-45091267D01*
X60511247Y-44676070D01*
X60735950Y-44133589D01*
X60735950Y-43546411D01*
X60511247Y-43003930D01*
X60096050Y-42588733D01*
X59553569Y-42364030D01*
X58966391Y-42364030D01*
X58423910Y-42588733D01*
X58008713Y-43003930D01*
X57784010Y-43546411D01*
X55734690Y-43546411D01*
X55509987Y-43003930D01*
X55094790Y-42588733D01*
X54552309Y-42364030D01*
X53965131Y-42364030D01*
X53422650Y-42588733D01*
X53007453Y-43003930D01*
X52782750Y-43546411D01*
X50735970Y-43546411D01*
X50511267Y-43003930D01*
X50096070Y-42588733D01*
X49553589Y-42364030D01*
X48966411Y-42364030D01*
X48423930Y-42588733D01*
X48008733Y-43003930D01*
X47784030Y-43546411D01*
X37797000Y-43546411D01*
X37797000Y-39826107D01*
X51472119Y-26150989D01*
X57239803Y-26150989D01*
X53367853Y-30022940D01*
X53367850Y-30022942D01*
X44456193Y-38934600D01*
X43788887Y-38934600D01*
X43117388Y-39212744D01*
X42603444Y-39726688D01*
X42325300Y-40398187D01*
X42325300Y-41125013D01*
X42603444Y-41796512D01*
X43117388Y-42310456D01*
X43788887Y-42588600D01*
X44515713Y-42588600D01*
X45187212Y-42310456D01*
X45701156Y-41796512D01*
X45979300Y-41125013D01*
X45979300Y-40457707D01*
X54890958Y-31546050D01*
X54890960Y-31546047D01*
X59586009Y-26850999D01*
X75823831Y-26850999D01*
X75784310Y-26946411D01*
X75784310Y-27533589D01*
X76009013Y-28076070D01*
X76424210Y-28491267D01*
X76966691Y-28715970D01*
X77553869Y-28715970D01*
X78096350Y-28491267D01*
X78511547Y-28076070D01*
X78736250Y-27533589D01*
X78736250Y-26946411D01*
X78696729Y-26850999D01*
X80822551Y-26850999D01*
X80783030Y-26946411D01*
X80783030Y-27533589D01*
X81007733Y-28076070D01*
X81422930Y-28491267D01*
X81965411Y-28715970D01*
X82552589Y-28715970D01*
X83095070Y-28491267D01*
X83510267Y-28076070D01*
X83734970Y-27533589D01*
X83734970Y-26946411D01*
X83695449Y-26850999D01*
X90021792Y-26850999D01*
X90448701Y-27277909D01*
X90448701Y-29816971D01*
X90439113Y-29813000D01*
X89712287Y-29813000D01*
X89350155Y-29963000D01*
X59938668Y-29963000D01*
X59832600Y-29941902D01*
X59726532Y-29963000D01*
X59726528Y-29963000D01*
X59475377Y-30012957D01*
X59412375Y-30025489D01*
X59146050Y-30203442D01*
X59146049Y-30203443D01*
X59056127Y-30263527D01*
X58996043Y-30353449D01*
X56702693Y-32646800D01*
X56035387Y-32646800D01*
X55363888Y-32924944D01*
X54849944Y-33438888D01*
X54571800Y-34110387D01*
X54571800Y-34837213D01*
X54849944Y-35508712D01*
X55363888Y-36022656D01*
X56035387Y-36300800D01*
X56762213Y-36300800D01*
X57433712Y-36022656D01*
X57947656Y-35508712D01*
X58225800Y-34837213D01*
X58225800Y-34169907D01*
X60278708Y-32117000D01*
X88295749Y-32117000D01*
X88526844Y-32674912D01*
X89040788Y-33188856D01*
X89712287Y-33467000D01*
X89973793Y-33467000D01*
X89503952Y-33936841D01*
X89414027Y-33996927D01*
X89175989Y-34353177D01*
X89113500Y-34667329D01*
X89113500Y-34667334D01*
X89092402Y-34773400D01*
X89113500Y-34879467D01*
X89113501Y-40818631D01*
X88641644Y-41290488D01*
X88363500Y-41961987D01*
X88363500Y-42688813D01*
X88641644Y-43360312D01*
X89155588Y-43874256D01*
X89827087Y-44152400D01*
X90553913Y-44152400D01*
X90968439Y-43980698D01*
X91103287Y-44182512D01*
X91214085Y-44256546D01*
X91736886Y-44779346D01*
X91711144Y-44805088D01*
X91433000Y-45476587D01*
X91433000Y-46203413D01*
X91633001Y-46686258D01*
X91633000Y-53245044D01*
X91550756Y-53046488D01*
X91036812Y-52532544D01*
X90365313Y-52254400D01*
X89638487Y-52254400D01*
X88966988Y-52532544D01*
X88495132Y-53004400D01*
X86156208Y-53004400D01*
X73857960Y-40706152D01*
X74963000Y-40706152D01*
X74963000Y-41273848D01*
X75180247Y-41798331D01*
X75581669Y-42199753D01*
X76106152Y-42417000D01*
X76673848Y-42417000D01*
X77198331Y-42199753D01*
X77599753Y-41798331D01*
X77817000Y-41273848D01*
X77817000Y-40706152D01*
X82463000Y-40706152D01*
X82463000Y-41273848D01*
X82680247Y-41798331D01*
X83081669Y-42199753D01*
X83606152Y-42417000D01*
X84173848Y-42417000D01*
X84698331Y-42199753D01*
X85099753Y-41798331D01*
X85317000Y-41273848D01*
X85317000Y-40706152D01*
X85099753Y-40181669D01*
X84698331Y-39780247D01*
X84173848Y-39563000D01*
X83606152Y-39563000D01*
X83081669Y-39780247D01*
X82680247Y-40181669D01*
X82463000Y-40706152D01*
X77817000Y-40706152D01*
X77599753Y-40181669D01*
X77198331Y-39780247D01*
X76673848Y-39563000D01*
X76106152Y-39563000D01*
X75581669Y-39780247D01*
X75180247Y-40181669D01*
X74963000Y-40706152D01*
X73857960Y-40706152D01*
X68743300Y-35591493D01*
X68743300Y-34924187D01*
X68465156Y-34252688D01*
X67951212Y-33738744D01*
X67279713Y-33460600D01*
X66552887Y-33460600D01*
X65881388Y-33738744D01*
X65367444Y-34252688D01*
X65208053Y-34637491D01*
X65162774Y-34569726D01*
X64806525Y-34331688D01*
X64492373Y-34269199D01*
X64492367Y-34269199D01*
X64386301Y-34248101D01*
X64280235Y-34269199D01*
X60859867Y-34269199D01*
X60753800Y-34248101D01*
X60647734Y-34269199D01*
X60647729Y-34269199D01*
X60333577Y-34331688D01*
X60193984Y-34424961D01*
X60067252Y-34509641D01*
X59977328Y-34569726D01*
X59917244Y-34659648D01*
X58363893Y-36213000D01*
X58096587Y-36213000D01*
X57425088Y-36491144D01*
X56911144Y-37005088D01*
X56633000Y-37676587D01*
X56633000Y-38403413D01*
X56911144Y-39074912D01*
X57425088Y-39588856D01*
X58096587Y-39867000D01*
X58823413Y-39867000D01*
X59494912Y-39588856D01*
X60008856Y-39074912D01*
X60287000Y-38403413D01*
X60287000Y-37676587D01*
X60187276Y-37435832D01*
X61199909Y-36423199D01*
X61867271Y-36423199D01*
X61863300Y-36432787D01*
X61863300Y-37159613D01*
X62141444Y-37831112D01*
X62613300Y-38302968D01*
X62613301Y-53266529D01*
X62592202Y-53372600D01*
X62613301Y-53478672D01*
X62660904Y-53717987D01*
X62675790Y-53792824D01*
X62853742Y-54059149D01*
X62853744Y-54059151D01*
X62913828Y-54149073D01*
X63003750Y-54209157D01*
X64207045Y-55412452D01*
X63951013Y-55306400D01*
X63224187Y-55306400D01*
X62552688Y-55584544D01*
X62038744Y-56098488D01*
X61760600Y-56769987D01*
X61760600Y-57496813D01*
X62038744Y-58168312D01*
X62552688Y-58682256D01*
X63224187Y-58960400D01*
X63891493Y-58960400D01*
X64384893Y-59453800D01*
X60840168Y-59453800D01*
X60368312Y-58981944D01*
X59696813Y-58703800D01*
X58969987Y-58703800D01*
X58298488Y-58981944D01*
X57784544Y-59495888D01*
X57506400Y-60167387D01*
X57506400Y-60894213D01*
X57784544Y-61565712D01*
X58298488Y-62079656D01*
X58969987Y-62357800D01*
X59696813Y-62357800D01*
X60368312Y-62079656D01*
X60840168Y-61607800D01*
X62309269Y-61607800D01*
X62262800Y-61719987D01*
X62262800Y-62446813D01*
X62540944Y-63118312D01*
X63054888Y-63632256D01*
X63726387Y-63910400D01*
X64393693Y-63910400D01*
X66877543Y-66394251D01*
X66937627Y-66484173D01*
X67027549Y-66544257D01*
X67027550Y-66544258D01*
X67167084Y-66637491D01*
X67293876Y-66722211D01*
X67608028Y-66784700D01*
X67608033Y-66784700D01*
X67714099Y-66805798D01*
X67820166Y-66784700D01*
X96294334Y-66784700D01*
X96400400Y-66805798D01*
X96506466Y-66784700D01*
X96506472Y-66784700D01*
X96820624Y-66722211D01*
X97176873Y-66484173D01*
X97236959Y-66394248D01*
X98275272Y-65355935D01*
X106793000Y-65355935D01*
X106793000Y-65844065D01*
X106979800Y-66295039D01*
X107324961Y-66640200D01*
X107775935Y-66827000D01*
X108264065Y-66827000D01*
X108715039Y-66640200D01*
X109060200Y-66295039D01*
X109247000Y-65844065D01*
X109247000Y-65355935D01*
X109060200Y-64904961D01*
X108715039Y-64559800D01*
X108264065Y-64373000D01*
X107775935Y-64373000D01*
X107324961Y-64559800D01*
X106979800Y-64904961D01*
X106793000Y-65355935D01*
X98275272Y-65355935D01*
X98930408Y-64700800D01*
X99597713Y-64700800D01*
X100269212Y-64422656D01*
X100783156Y-63908712D01*
X101061300Y-63237213D01*
X101061300Y-62510387D01*
X100783156Y-61838888D01*
X100269212Y-61324944D01*
X99597713Y-61046800D01*
X98870887Y-61046800D01*
X98573885Y-61169822D01*
X104547772Y-55195935D01*
X106793000Y-55195935D01*
X106793000Y-55684065D01*
X106979800Y-56135039D01*
X107324961Y-56480200D01*
X107775935Y-56667000D01*
X108264065Y-56667000D01*
X108715039Y-56480200D01*
X109060200Y-56135039D01*
X109247000Y-55684065D01*
X109247000Y-55195935D01*
X109060200Y-54744961D01*
X108715039Y-54399800D01*
X108264065Y-54213000D01*
X107775935Y-54213000D01*
X107324961Y-54399800D01*
X106979800Y-54744961D01*
X106793000Y-55195935D01*
X104547772Y-55195935D01*
X106793000Y-52950708D01*
X106793000Y-53144065D01*
X106979800Y-53595039D01*
X107324961Y-53940200D01*
X107775935Y-54127000D01*
X108264065Y-54127000D01*
X108715039Y-53940200D01*
X108765098Y-53890141D01*
X109036644Y-54545712D01*
X109550588Y-55059656D01*
X110222087Y-55337800D01*
X110948913Y-55337800D01*
X110999500Y-55316846D01*
X110999500Y-59500132D01*
X110527644Y-59971988D01*
X110249500Y-60643487D01*
X110249500Y-61223693D01*
X110109260Y-61083453D01*
X110049174Y-60993528D01*
X109692925Y-60755490D01*
X109378773Y-60693001D01*
X109378767Y-60693001D01*
X109272701Y-60671903D01*
X109247000Y-60677015D01*
X109247000Y-60275935D01*
X109060200Y-59824961D01*
X108715039Y-59479800D01*
X108264065Y-59293000D01*
X107775935Y-59293000D01*
X107324961Y-59479800D01*
X106988933Y-59815828D01*
X106342987Y-59169881D01*
X106764756Y-58748112D01*
X106887412Y-58451995D01*
X106979800Y-58675039D01*
X107324961Y-59020200D01*
X107775935Y-59207000D01*
X108264065Y-59207000D01*
X108715039Y-59020200D01*
X109060200Y-58675039D01*
X109247000Y-58224065D01*
X109247000Y-57735935D01*
X109060200Y-57284961D01*
X108715039Y-56939800D01*
X108264065Y-56753000D01*
X107775935Y-56753000D01*
X107324961Y-56939800D01*
X107005431Y-57259330D01*
X106764756Y-56678288D01*
X106250812Y-56164344D01*
X105579313Y-55886200D01*
X104852487Y-55886200D01*
X104180988Y-56164344D01*
X103667044Y-56678288D01*
X103388900Y-57349787D01*
X103388900Y-58076613D01*
X103667044Y-58748112D01*
X104138901Y-59219969D01*
X104138901Y-59459831D01*
X104117802Y-59565902D01*
X104138901Y-59671974D01*
X104169332Y-59824961D01*
X104201390Y-59986126D01*
X104379342Y-60252451D01*
X104379344Y-60252453D01*
X104439428Y-60342375D01*
X104529350Y-60402459D01*
X106583442Y-62456552D01*
X106643526Y-62546474D01*
X106733448Y-62606558D01*
X106733449Y-62606559D01*
X106848017Y-62683111D01*
X106793000Y-62815935D01*
X106793000Y-63304065D01*
X106979800Y-63755039D01*
X107324961Y-64100200D01*
X107775935Y-64287000D01*
X108264065Y-64287000D01*
X108715039Y-64100200D01*
X109060200Y-63755039D01*
X109247000Y-63304065D01*
X109247000Y-63267407D01*
X110708800Y-64729208D01*
X110708800Y-65396513D01*
X110986944Y-66068012D01*
X111500888Y-66581956D01*
X112172387Y-66860100D01*
X112899213Y-66860100D01*
X113133401Y-66763096D01*
X113133401Y-66817731D01*
X112661544Y-67289588D01*
X112383400Y-67961087D01*
X112383400Y-68687913D01*
X112661544Y-69359412D01*
X113175488Y-69873356D01*
X113846987Y-70151500D01*
X114573813Y-70151500D01*
X115245312Y-69873356D01*
X115759256Y-69359412D01*
X116037400Y-68687913D01*
X116037400Y-67961087D01*
X115759256Y-67289588D01*
X115287400Y-66817732D01*
X115287400Y-65355935D01*
X122033000Y-65355935D01*
X122033000Y-65844065D01*
X122219800Y-66295039D01*
X122564961Y-66640200D01*
X123015935Y-66827000D01*
X123504065Y-66827000D01*
X123955039Y-66640200D01*
X124300200Y-66295039D01*
X124487000Y-65844065D01*
X124487000Y-65355935D01*
X124300200Y-64904961D01*
X123955039Y-64559800D01*
X123504065Y-64373000D01*
X123015935Y-64373000D01*
X122564961Y-64559800D01*
X122219800Y-64904961D01*
X122033000Y-65355935D01*
X115287400Y-65355935D01*
X115287400Y-62815935D01*
X122033000Y-62815935D01*
X122033000Y-63304065D01*
X122219800Y-63755039D01*
X122564961Y-64100200D01*
X123015935Y-64287000D01*
X123504065Y-64287000D01*
X123955039Y-64100200D01*
X124300200Y-63755039D01*
X124487000Y-63304065D01*
X124487000Y-62815935D01*
X124300200Y-62364961D01*
X123955039Y-62019800D01*
X123504065Y-61833000D01*
X123015935Y-61833000D01*
X122564961Y-62019800D01*
X122219800Y-62364961D01*
X122033000Y-62815935D01*
X115287400Y-62815935D01*
X115287400Y-60275935D01*
X122033000Y-60275935D01*
X122033000Y-60764065D01*
X122219800Y-61215039D01*
X122564961Y-61560200D01*
X123015935Y-61747000D01*
X123504065Y-61747000D01*
X123955039Y-61560200D01*
X124300200Y-61215039D01*
X124487000Y-60764065D01*
X124487000Y-60275935D01*
X124300200Y-59824961D01*
X123955039Y-59479800D01*
X123504065Y-59293000D01*
X123015935Y-59293000D01*
X122564961Y-59479800D01*
X122219800Y-59824961D01*
X122033000Y-60275935D01*
X115287400Y-60275935D01*
X115287400Y-49837868D01*
X115759256Y-49366012D01*
X116037400Y-48694513D01*
X116037400Y-47967687D01*
X115759256Y-47296188D01*
X115245312Y-46782244D01*
X114573813Y-46504100D01*
X113846987Y-46504100D01*
X113175488Y-46782244D01*
X112750420Y-47207312D01*
X110347001Y-44803894D01*
X110347001Y-44786065D01*
X110368099Y-44679999D01*
X110347001Y-44573932D01*
X110347001Y-44573928D01*
X110284512Y-44259776D01*
X110271165Y-44239800D01*
X110106559Y-43993450D01*
X110046474Y-43903526D01*
X109956549Y-43843440D01*
X109456560Y-43343451D01*
X109396474Y-43253526D01*
X109191982Y-43116889D01*
X109247000Y-42984065D01*
X109247000Y-42527001D01*
X116184531Y-42527001D01*
X116290597Y-42548099D01*
X116396663Y-42527001D01*
X116396669Y-42527001D01*
X116710821Y-42464512D01*
X117067070Y-42226474D01*
X117127156Y-42136550D01*
X117630706Y-41633000D01*
X118012493Y-41633000D01*
X119943000Y-43563508D01*
X119943001Y-56473231D01*
X119471144Y-56945088D01*
X119193000Y-57616587D01*
X119193000Y-58343413D01*
X119471144Y-59014912D01*
X119985088Y-59528856D01*
X120656587Y-59807000D01*
X121383413Y-59807000D01*
X122054912Y-59528856D01*
X122564265Y-59019504D01*
X122564961Y-59020200D01*
X123015935Y-59207000D01*
X123504065Y-59207000D01*
X123955039Y-59020200D01*
X124300200Y-58675039D01*
X124487000Y-58224065D01*
X124487000Y-57735935D01*
X124300200Y-57284961D01*
X123955039Y-56939800D01*
X123504065Y-56753000D01*
X123015935Y-56753000D01*
X122564961Y-56939800D01*
X122564265Y-56940497D01*
X122097000Y-56473232D01*
X122097000Y-55838574D01*
X122219800Y-56135039D01*
X122564961Y-56480200D01*
X123015935Y-56667000D01*
X123504065Y-56667000D01*
X123955039Y-56480200D01*
X124300200Y-56135039D01*
X124487000Y-55684065D01*
X124487000Y-55195935D01*
X124300200Y-54744961D01*
X123955039Y-54399800D01*
X123504065Y-54213000D01*
X123015935Y-54213000D01*
X122564961Y-54399800D01*
X122219800Y-54744961D01*
X122097000Y-55041426D01*
X122097000Y-53298574D01*
X122219800Y-53595039D01*
X122564961Y-53940200D01*
X123015935Y-54127000D01*
X123504065Y-54127000D01*
X123955039Y-53940200D01*
X124300200Y-53595039D01*
X124487000Y-53144065D01*
X124487000Y-52655935D01*
X124300200Y-52204961D01*
X123955039Y-51859800D01*
X123504065Y-51673000D01*
X123015935Y-51673000D01*
X122564961Y-51859800D01*
X122219800Y-52204961D01*
X122097000Y-52501426D01*
X122097000Y-50758574D01*
X122219800Y-51055039D01*
X122564961Y-51400200D01*
X123015935Y-51587000D01*
X123504065Y-51587000D01*
X123955039Y-51400200D01*
X124300200Y-51055039D01*
X124487000Y-50604065D01*
X124487000Y-50115935D01*
X124300200Y-49664961D01*
X123955039Y-49319800D01*
X123504065Y-49133000D01*
X123015935Y-49133000D01*
X122564961Y-49319800D01*
X122219800Y-49664961D01*
X122097000Y-49961426D01*
X122097000Y-48218574D01*
X122219800Y-48515039D01*
X122564961Y-48860200D01*
X123015935Y-49047000D01*
X123504065Y-49047000D01*
X123955039Y-48860200D01*
X124300200Y-48515039D01*
X124487000Y-48064065D01*
X124487000Y-47575935D01*
X124300200Y-47124961D01*
X123955039Y-46779800D01*
X123504065Y-46593000D01*
X123015935Y-46593000D01*
X122564961Y-46779800D01*
X122219800Y-47124961D01*
X122097000Y-47421426D01*
X122097000Y-45678574D01*
X122219800Y-45975039D01*
X122564961Y-46320200D01*
X123015935Y-46507000D01*
X123504065Y-46507000D01*
X123955039Y-46320200D01*
X124300200Y-45975039D01*
X124487000Y-45524065D01*
X124487000Y-45035935D01*
X124300200Y-44584961D01*
X123955039Y-44239800D01*
X123504065Y-44053000D01*
X123015935Y-44053000D01*
X122564961Y-44239800D01*
X122219800Y-44584961D01*
X122097000Y-44881426D01*
X122097000Y-43223468D01*
X122108408Y-43166116D01*
X122219800Y-43435039D01*
X122564961Y-43780200D01*
X123015935Y-43967000D01*
X123504065Y-43967000D01*
X123955039Y-43780200D01*
X124300200Y-43435039D01*
X124487000Y-42984065D01*
X124487000Y-42495935D01*
X124300200Y-42044961D01*
X123955039Y-41699800D01*
X123504065Y-41513000D01*
X123015935Y-41513000D01*
X122564961Y-41699800D01*
X122219800Y-42044961D01*
X122033000Y-42495935D01*
X122033000Y-42694914D01*
X121856558Y-42430850D01*
X121856557Y-42430849D01*
X121796473Y-42340927D01*
X121706551Y-42280843D01*
X119381643Y-39955935D01*
X122033000Y-39955935D01*
X122033000Y-40444065D01*
X122219800Y-40895039D01*
X122564961Y-41240200D01*
X123015935Y-41427000D01*
X123504065Y-41427000D01*
X123955039Y-41240200D01*
X124300200Y-40895039D01*
X124487000Y-40444065D01*
X124487000Y-39955935D01*
X124300200Y-39504961D01*
X123955039Y-39159800D01*
X123504065Y-38973000D01*
X123015935Y-38973000D01*
X122564961Y-39159800D01*
X122219800Y-39504961D01*
X122033000Y-39955935D01*
X119381643Y-39955935D01*
X119295159Y-39869452D01*
X119235073Y-39779527D01*
X118878824Y-39541489D01*
X118564672Y-39479000D01*
X118564666Y-39479000D01*
X118458600Y-39457902D01*
X118352534Y-39479000D01*
X117290664Y-39479000D01*
X117184597Y-39457902D01*
X117078531Y-39479000D01*
X117078526Y-39479000D01*
X116764374Y-39541489D01*
X116522368Y-39703192D01*
X116498049Y-39719442D01*
X116408125Y-39779527D01*
X116348041Y-39869449D01*
X115844490Y-40373001D01*
X112310767Y-40373001D01*
X112708856Y-39974912D01*
X112987000Y-39303413D01*
X112987000Y-38636108D01*
X113396552Y-38226556D01*
X113486474Y-38166472D01*
X113724512Y-37810223D01*
X113787001Y-37496071D01*
X113787001Y-37496066D01*
X113802940Y-37415935D01*
X122033000Y-37415935D01*
X122033000Y-37904065D01*
X122219800Y-38355039D01*
X122564961Y-38700200D01*
X123015935Y-38887000D01*
X123504065Y-38887000D01*
X123955039Y-38700200D01*
X124300200Y-38355039D01*
X124487000Y-37904065D01*
X124487000Y-37415935D01*
X124300200Y-36964961D01*
X123955039Y-36619800D01*
X123504065Y-36433000D01*
X123015935Y-36433000D01*
X122564961Y-36619800D01*
X122219800Y-36964961D01*
X122033000Y-37415935D01*
X113802940Y-37415935D01*
X113808099Y-37390000D01*
X113787001Y-37283933D01*
X113787001Y-34875935D01*
X122033000Y-34875935D01*
X122033000Y-35364065D01*
X122219800Y-35815039D01*
X122564961Y-36160200D01*
X123015935Y-36347000D01*
X123504065Y-36347000D01*
X123955039Y-36160200D01*
X124300200Y-35815039D01*
X124487000Y-35364065D01*
X124487000Y-34875935D01*
X124300200Y-34424961D01*
X123955039Y-34079800D01*
X123504065Y-33893000D01*
X123015935Y-33893000D01*
X122564961Y-34079800D01*
X122219800Y-34424961D01*
X122033000Y-34875935D01*
X113787001Y-34875935D01*
X113787001Y-32335935D01*
X122033000Y-32335935D01*
X122033000Y-32824065D01*
X122219800Y-33275039D01*
X122564961Y-33620200D01*
X123015935Y-33807000D01*
X123504065Y-33807000D01*
X123955039Y-33620200D01*
X124300200Y-33275039D01*
X124487000Y-32824065D01*
X124487000Y-32335935D01*
X124300200Y-31884961D01*
X123955039Y-31539800D01*
X123504065Y-31353000D01*
X123015935Y-31353000D01*
X122564961Y-31539800D01*
X122219800Y-31884961D01*
X122033000Y-32335935D01*
X113787001Y-32335935D01*
X113787001Y-29795935D01*
X122033000Y-29795935D01*
X122033000Y-30284065D01*
X122219800Y-30735039D01*
X122564961Y-31080200D01*
X123015935Y-31267000D01*
X123504065Y-31267000D01*
X123955039Y-31080200D01*
X124300200Y-30735039D01*
X124487000Y-30284065D01*
X124487000Y-29795935D01*
X124300200Y-29344961D01*
X123955039Y-28999800D01*
X123504065Y-28813000D01*
X123015935Y-28813000D01*
X122564961Y-28999800D01*
X122219800Y-29344961D01*
X122033000Y-29795935D01*
X113787001Y-29795935D01*
X113787001Y-27750067D01*
X113808099Y-27643999D01*
X113787001Y-27537931D01*
X113787001Y-27537927D01*
X113724512Y-27223775D01*
X113724512Y-27223774D01*
X113546559Y-26957449D01*
X113546558Y-26957448D01*
X113486474Y-26867526D01*
X113396552Y-26807442D01*
X110276540Y-23687431D01*
X110216454Y-23597506D01*
X109860205Y-23359468D01*
X109546053Y-23296979D01*
X109546047Y-23296979D01*
X109439981Y-23275881D01*
X109333915Y-23296979D01*
X48832087Y-23296979D01*
X48726020Y-23275881D01*
X48619954Y-23296979D01*
X48619949Y-23296979D01*
X48305797Y-23359468D01*
X48305795Y-23359469D01*
X48305796Y-23359469D01*
X48039472Y-23537421D01*
X47949548Y-23597506D01*
X47889464Y-23687428D01*
X45952036Y-25624856D01*
X45923413Y-25613000D01*
X45196587Y-25613000D01*
X44525088Y-25891144D01*
X44011144Y-26405088D01*
X43733000Y-27076587D01*
X43733000Y-27803413D01*
X44011144Y-28474912D01*
X44525088Y-28988856D01*
X45196587Y-29267000D01*
X45309892Y-29267000D01*
X36033450Y-38543443D01*
X35943528Y-38603527D01*
X35883444Y-38693449D01*
X35883442Y-38693451D01*
X35705490Y-38959776D01*
X35621902Y-39380000D01*
X35643001Y-39486071D01*
X35643000Y-57470532D01*
X35171144Y-57942388D01*
X34893000Y-58613887D01*
X33187000Y-58613887D01*
X33187000Y-20767000D01*
X125333001Y-20767000D01*
X125333000Y-72413000D01*
G04 #@! TD*
M02*
