M48
;DRILL file {KiCad 5.0.0} date Mon Dec 31 10:47:23 2018
;FORMAT={-:-/ absolute / metric / decimal}
FMAT,2
METRIC,TZ
T1C0.800
T2C0.810
T3C1.200
T4C1.298
%
G90
G05
M71
T1
X108.02Y-30.04
X108.02Y-32.58
X108.02Y-35.12
X108.02Y-37.66
X108.02Y-40.2
X108.02Y-42.74
X108.02Y-45.28
X108.02Y-47.82
X108.02Y-50.36
X108.02Y-52.9
X108.02Y-55.44
X108.02Y-57.98
X108.02Y-60.52
X108.02Y-63.06
X108.02Y-65.6
X123.26Y-30.04
X123.26Y-32.58
X123.26Y-35.12
X123.26Y-37.66
X123.26Y-40.2
X123.26Y-42.74
X123.26Y-45.28
X123.26Y-47.82
X123.26Y-50.36
X123.26Y-52.9
X123.26Y-55.44
X123.26Y-57.98
X123.26Y-60.52
X123.26Y-63.06
X123.26Y-65.6
T2
X36.72Y-58.977
X44.152Y-40.762
X45.56Y-27.44
X56.399Y-34.474
X58.46Y-38.04
X59.333Y-60.531
X63.588Y-57.133
X63.69Y-36.796
X64.09Y-62.083
X66.916Y-35.288
X70.99Y-49.349
X71.018Y-55.866
X71.831Y-59.345
X89.981Y-62.857
X90.002Y-54.081
X90.024Y-59.18
X90.076Y-31.64
X90.191Y-42.325
X91.06Y-56.24
X92.16Y-34.94
X92.96Y-58.54
X93.26Y-45.84
X96.079Y-55.857
X99.234Y-62.874
X99.712Y-44.462
X102.988Y-45.945
X105.216Y-57.713
X105.47Y-50.699
X105.619Y-48.499
X105.926Y-40.806
X110.585Y-53.511
X111.16Y-38.94
X111.26Y-28.34
X112.076Y-61.007
X112.536Y-65.033
X114.21Y-48.331
X114.21Y-68.325
X116.248Y-46.988
X117.852Y-42.034
X121.02Y-57.98
T3
X76.39Y-40.99
X83.89Y-40.99
X76.4Y-57.83
X83.9Y-57.83
T4
X49.26Y-43.84
X54.259Y-43.84
X59.26Y-43.84
X77.26Y-27.24
X82.259Y-27.24
X93.261Y-27.24
X98.26Y-27.24
T0
M30
