<?xml version="1.0" ?>
<svg height="44.03729mm" version="1.1" viewBox="33.7009 -111.66489 87.45821 44.03729" width="87.45821mm" xmlns="http://www.w3.org/2000/svg" xmlns:xlink="http://www.w3.org/1999/xlink">
	<g transform="scale(1,-1)">
		<g>
			<path d="M 92.83003,-67.6276 L 92.83003,-67.6275999998 L 92.83003,-66.3576000002 L 92.83003,-66.3576 L 92.8300300002,-66.3576 L 94.8899699998,-66.3576 L 94.88997,-66.3576 L 94.88997,-66.3576000002 L 94.88997,-67.6275999998 L 94.88997,-67.6276 L 94.8899699998,-67.6276 L 92.8300300002,-67.6276 L 92.83003,-67.6276 z" fill="#66cc99" fill-rule="evenodd" opacity="0.6" stroke="#555555" stroke-width="0.1"/>
			<path d="M 100.96,-66.82 L 100.96,-66.8199999998 L 100.96,-66.2200000002 L 100.96,-66.22 L 100.96,-66.22 L 102.51,-66.22 L 102.51,-66.22 L 102.51,-66.2200000002 L 102.51,-66.8199999998 L 102.51,-66.82 L 102.51,-66.82 L 100.96,-66.82 L 100.96,-66.82 z" fill="#66cc99" fill-rule="evenodd" opacity="0.6" stroke="#555555" stroke-width="0.1"/>
			<path d="M 95.56,-66.82 L 95.56,-66.8199999998 L 95.56,-66.2200000002 L 95.56,-66.22 L 95.5600000002,-66.22 L 97.1099999998,-66.22 L 97.11,-66.22 L 97.11,-66.2200000002 L 97.11,-66.8199999998 L 97.11,-66.82 L 97.1099999998,-66.82 L 95.5600000002,-66.82 L 95.56,-66.82 z" fill="#66cc99" fill-rule="evenodd" opacity="0.6" stroke="#555555" stroke-width="0.1"/>
			<path d="M 44.06084,-66.13837 L 44.06084,-66.1383699998 L 44.06084,-64.5407100002 L 44.06084,-64.54071 L 44.0608400002,-64.54071 L 45.8591599998,-64.54071 L 45.85916,-64.54071 L 45.85916,-64.5407100002 L 45.85916,-66.1383699998 L 45.85916,-66.13837 L 45.8591599998,-66.13837 L 44.0608400002,-66.13837 L 44.06084,-66.13837 z" fill="#66cc99" fill-rule="evenodd" opacity="0.6" stroke="#555555" stroke-width="0.1"/>
			<path d="M 56.56084,-66.13837 L 56.56084,-66.1383699998 L 56.56084,-64.5407100002 L 56.56084,-64.54071 L 56.5608400002,-64.54071 L 58.3591599998,-64.54071 L 58.35916,-64.54071 L 58.35916,-64.5407100002 L 58.35916,-66.1383699998 L 58.35916,-66.13837 L 58.3591599998,-66.13837 L 56.5608400002,-66.13837 L 56.56084,-66.13837 z" fill="#66cc99" fill-rule="evenodd" opacity="0.6" stroke="#555555" stroke-width="0.1"/>
			<path d="M 69.06084,-66.13837 L 69.06084,-66.1383699998 L 69.06084,-64.5407100002 L 69.06084,-64.54071 L 69.0608400002,-64.54071 L 70.8591599998,-64.54071 L 70.85916,-64.54071 L 70.85916,-64.5407100002 L 70.85916,-66.1383699998 L 70.85916,-66.13837 L 70.8591599998,-66.13837 L 69.0608400002,-66.13837 L 69.06084,-66.13837 z" fill="#66cc99" fill-rule="evenodd" opacity="0.6" stroke="#555555" stroke-width="0.1"/>
			<path d="M 103.16089,-66.03827 L 103.16089,-66.0382699998 L 103.16089,-64.9384500002 L 103.16089,-64.93845 L 103.16089,-64.93845 L 104.15911,-64.93845 L 104.15911,-64.93845 L 104.15911,-64.9384500002 L 104.15911,-66.0382699998 L 104.15911,-66.03827 L 104.15911,-66.03827 L 103.16089,-66.03827 L 103.16089,-66.03827 z" fill="#66cc99" fill-rule="evenodd" opacity="0.6" stroke="#555555" stroke-width="0.1"/>
			<path d="M 100.96,-65.55 L 100.96,-65.5499999998 L 100.96,-64.9500000002 L 100.96,-64.95 L 100.96,-64.95 L 102.51,-64.95 L 102.51,-64.95 L 102.51,-64.9500000002 L 102.51,-65.5499999998 L 102.51,-65.55 L 102.51,-65.55 L 100.96,-65.55 L 100.96,-65.55 z" fill="#66cc99" fill-rule="evenodd" opacity="0.6" stroke="#555555" stroke-width="0.1"/>
			<path d="M 89.53706,-65.83944 L 89.53706,-65.8394399998 L 89.53706,-64.6405600002 L 89.53706,-64.64056 L 89.5370600002,-64.64056 L 90.3346199998,-64.64056 L 90.33462,-64.64056 L 90.33462,-64.6405600002 L 90.33462,-65.8394399998 L 90.33462,-65.83944 L 90.3346199998,-65.83944 L 89.5370600002,-65.83944 L 89.53706,-65.83944 z" fill="#66cc99" fill-rule="evenodd" opacity="0.6" stroke="#555555" stroke-width="0.1"/>
			<path d="M 95.56,-65.55 L 95.56,-65.5499999998 L 95.56,-64.9500000002 L 95.56,-64.95 L 95.5600000002,-64.95 L 97.1099999998,-64.95 L 97.11,-64.95 L 97.11,-64.9500000002 L 97.11,-65.5499999998 L 97.11,-65.55 L 97.1099999998,-65.55 L 95.5600000002,-65.55 L 95.56,-65.55 z" fill="#66cc99" fill-rule="evenodd" opacity="0.6" stroke="#555555" stroke-width="0.1"/>
			<path d="M 91.33538,-65.83944 L 91.33538,-65.8394399998 L 91.33538,-64.6405600002 L 91.33538,-64.64056 L 91.3353800002,-64.64056 L 92.1329399998,-64.64056 L 92.13294,-64.64056 L 92.13294,-64.6405600002 L 92.13294,-65.8394399998 L 92.13294,-65.83944 L 92.1329399998,-65.83944 L 91.3353800002,-65.83944 L 91.33538,-65.83944 z" fill="#66cc99" fill-rule="evenodd" opacity="0.6" stroke="#555555" stroke-width="0.1"/>
			<path d="M 35.56049,-63.98842 L 35.56049,-63.9884199998 L 35.56049,-60.1784200002 L 35.56049,-60.17842 L 35.5604900002,-60.17842 L 37.8795099998,-60.17842 L 37.87951,-60.17842 L 37.87951,-60.1784200002 L 37.87951,-63.9884199998 L 37.87951,-63.98842 L 37.8795099998,-63.98842 L 35.5604900002,-63.98842 L 35.56049,-63.98842 z" fill="#66cc99" fill-rule="evenodd" opacity="0.6" stroke="#555555" stroke-width="0.1"/>
			<path d="M 40.64049,-63.98842 L 40.64049,-63.9884199998 L 40.64049,-60.1784200002 L 40.64049,-60.17842 L 40.6404900002,-60.17842 L 42.9595099998,-60.17842 L 42.95951,-60.17842 L 42.95951,-60.1784200002 L 42.95951,-63.9884199998 L 42.95951,-63.98842 L 42.9595099998,-63.98842 L 40.6404900002,-63.98842 L 40.64049,-63.98842 z" fill="#66cc99" fill-rule="evenodd" opacity="0.6" stroke="#555555" stroke-width="0.1"/>
			<path d="M 95.78673,-61.51411 L 95.78673,-61.5141099998 L 95.78673,-60.5158900002 L 95.78673,-60.51589 L 95.7867300002,-60.51589 L 96.8865499998,-60.51589 L 96.88655,-60.51589 L 96.88655,-60.5158900002 L 96.88655,-61.5141099998 L 96.88655,-61.51411 L 96.8865499998,-61.51411 L 95.7867300002,-61.51411 L 95.78673,-61.51411 z" fill="#66cc99" fill-rule="evenodd" opacity="0.6" stroke="#555555" stroke-width="0.1"/>
			<path d="M 97.48345,-61.51411 L 97.48345,-61.5141099998 L 97.48345,-60.5158900002 L 97.48345,-60.51589 L 97.4834500002,-60.51589 L 98.5832699998,-60.51589 L 98.58327,-60.51589 L 98.58327,-60.5158900002 L 98.58327,-61.5141099998 L 98.58327,-61.51411 L 98.5832699998,-61.51411 L 97.4834500002,-61.51411 L 97.48345,-61.51411 z" fill="#66cc99" fill-rule="evenodd" opacity="0.6" stroke="#555555" stroke-width="0.1"/>
			<path d="M 99.51206,-61.58944 L 99.51206,-61.5894399998 L 99.51206,-60.3905600002 L 99.51206,-60.39056 L 99.5120600002,-60.39056 L 100.30962,-60.39056 L 100.30962,-60.39056 L 100.30962,-60.3905600002 L 100.30962,-61.5894399998 L 100.30962,-61.58944 L 100.30962,-61.58944 L 99.5120600002,-61.58944 L 99.51206,-61.58944 z" fill="#66cc99" fill-rule="evenodd" opacity="0.6" stroke="#555555" stroke-width="0.1"/>
			<path d="M 101.31038,-61.58944 L 101.31038,-61.5894399998 L 101.31038,-60.3905600002 L 101.31038,-60.39056 L 101.31038,-60.39056 L 102.10794,-60.39056 L 102.10794,-60.39056 L 102.10794,-60.3905600002 L 102.10794,-61.5894399998 L 102.10794,-61.58944 L 102.10794,-61.58944 L 101.31038,-61.58944 L 101.31038,-61.58944 z" fill="#66cc99" fill-rule="evenodd" opacity="0.6" stroke="#555555" stroke-width="0.1"/>
			<path d="M 100.96,-64.28 L 100.96,-64.2799999998 L 100.96,-63.6800000002 L 100.96,-63.68 L 100.96,-63.68 L 102.51,-63.68 L 102.51,-63.68 L 102.51,-63.6800000002 L 102.51,-64.2799999998 L 102.51,-64.28 L 102.51,-64.28 L 100.96,-64.28 L 100.96,-64.28 z" fill="#66cc99" fill-rule="evenodd" opacity="0.6" stroke="#555555" stroke-width="0.1"/>
			<path d="M 103.16089,-64.34155 L 103.16089,-64.3415499998 L 103.16089,-63.2417300002 L 103.16089,-63.24173 L 103.16089,-63.24173 L 104.15911,-63.24173 L 104.15911,-63.24173 L 104.15911,-63.2417300002 L 104.15911,-64.3415499998 L 104.15911,-64.34155 L 104.15911,-64.34155 L 103.16089,-64.34155 L 103.16089,-64.34155 z" fill="#66cc99" fill-rule="evenodd" opacity="0.6" stroke="#555555" stroke-width="0.1"/>
			<path d="M 95.56,-63.01 L 95.56,-63.0099999998 L 95.56,-62.4100000002 L 95.56,-62.41 L 95.5600000002,-62.41 L 97.1099999998,-62.41 L 97.11,-62.41 L 97.11,-62.4100000002 L 97.11,-63.0099999998 L 97.11,-63.01 L 97.1099999998,-63.01 L 95.5600000002,-63.01 L 95.56,-63.01 z" fill="#66cc99" fill-rule="evenodd" opacity="0.6" stroke="#555555" stroke-width="0.1"/>
			<path d="M 95.56,-64.28 L 95.56,-64.2799999998 L 95.56,-63.6800000002 L 95.56,-63.68 L 95.5600000002,-63.68 L 97.1099999998,-63.68 L 97.11,-63.68 L 97.11,-63.6800000002 L 97.11,-64.2799999998 L 97.11,-64.28 L 97.1099999998,-64.28 L 95.5600000002,-64.28 L 95.56,-64.28 z" fill="#66cc99" fill-rule="evenodd" opacity="0.6" stroke="#555555" stroke-width="0.1"/>
			<path d="M 92.83003,-64.1224 L 92.83003,-64.1223999998 L 92.83003,-62.8524000002 L 92.83003,-62.8524 L 92.8300300002,-62.8524 L 94.8899699998,-62.8524 L 94.88997,-62.8524 L 94.88997,-62.8524000002 L 94.88997,-64.1223999998 L 94.88997,-64.1224 L 94.8899699998,-64.1224 L 92.8300300002,-64.1224 L 92.83003,-64.1224 z" fill="#66cc99" fill-rule="evenodd" opacity="0.6" stroke="#555555" stroke-width="0.1"/>
			<path d="M 100.96,-63.01 L 100.96,-63.0099999998 L 100.96,-62.4100000002 L 100.96,-62.41 L 100.96,-62.41 L 102.51,-62.41 L 102.51,-62.41 L 102.51,-62.4100000002 L 102.51,-63.0099999998 L 102.51,-63.01 L 102.51,-63.01 L 100.96,-63.01 L 100.96,-63.01 z" fill="#66cc99" fill-rule="evenodd" opacity="0.6" stroke="#555555" stroke-width="0.1"/>
			<path d="M 44.06084,-63.33929 L 44.06084,-63.3392899998 L 44.06084,-61.7416300002 L 44.06084,-61.74163 L 44.0608400002,-61.74163 L 45.8591599998,-61.74163 L 45.85916,-61.74163 L 45.85916,-61.7416300002 L 45.85916,-63.3392899998 L 45.85916,-63.33929 L 45.8591599998,-63.33929 L 44.0608400002,-63.33929 L 44.06084,-63.33929 z" fill="#66cc99" fill-rule="evenodd" opacity="0.6" stroke="#555555" stroke-width="0.1"/>
			<path d="M 56.56084,-63.33929 L 56.56084,-63.3392899998 L 56.56084,-61.7416300002 L 56.56084,-61.74163 L 56.5608400002,-61.74163 L 58.3591599998,-61.74163 L 58.35916,-61.74163 L 58.35916,-61.7416300002 L 58.35916,-63.3392899998 L 58.35916,-63.33929 L 58.3591599998,-63.33929 L 56.5608400002,-63.33929 L 56.56084,-63.33929 z" fill="#66cc99" fill-rule="evenodd" opacity="0.6" stroke="#555555" stroke-width="0.1"/>
			<path d="M 69.06084,-63.33929 L 69.06084,-63.3392899998 L 69.06084,-61.7416300002 L 69.06084,-61.74163 L 69.0608400002,-61.74163 L 70.8591599998,-61.74163 L 70.85916,-61.74163 L 70.85916,-61.7416300002 L 70.85916,-63.3392899998 L 70.85916,-63.33929 L 70.8591599998,-63.33929 L 69.0608400002,-63.33929 L 69.06084,-63.33929 z" fill="#66cc99" fill-rule="evenodd" opacity="0.6" stroke="#555555" stroke-width="0.1"/>
			<path d="M 48.06049,-63.98842 L 48.06049,-63.9884199998 L 48.06049,-60.1784200002 L 48.06049,-60.17842 L 48.0604900002,-60.17842 L 50.3795099998,-60.17842 L 50.37951,-60.17842 L 50.37951,-60.1784200002 L 50.37951,-63.9884199998 L 50.37951,-63.98842 L 50.3795099998,-63.98842 L 48.0604900002,-63.98842 L 48.06049,-63.98842 z" fill="#66cc99" fill-rule="evenodd" opacity="0.6" stroke="#555555" stroke-width="0.1"/>
			<path d="M 53.14049,-63.98842 L 53.14049,-63.9884199998 L 53.14049,-60.1784200002 L 53.14049,-60.17842 L 53.1404900002,-60.17842 L 55.4595099998,-60.17842 L 55.45951,-60.17842 L 55.45951,-60.1784200002 L 55.45951,-63.9884199998 L 55.45951,-63.98842 L 55.4595099998,-63.98842 L 53.1404900002,-63.98842 L 53.14049,-63.98842 z" fill="#66cc99" fill-rule="evenodd" opacity="0.6" stroke="#555555" stroke-width="0.1"/>
			<path d="M 60.56049,-63.98842 L 60.56049,-63.9884199998 L 60.56049,-60.1784200002 L 60.56049,-60.17842 L 60.5604900002,-60.17842 L 62.8795099998,-60.17842 L 62.87951,-60.17842 L 62.87951,-60.1784200002 L 62.87951,-63.9884199998 L 62.87951,-63.98842 L 62.8795099998,-63.98842 L 60.5604900002,-63.98842 L 60.56049,-63.98842 z" fill="#66cc99" fill-rule="evenodd" opacity="0.6" stroke="#555555" stroke-width="0.1"/>
			<path d="M 65.64049,-63.98842 L 65.64049,-63.9884199998 L 65.64049,-60.1784200002 L 65.64049,-60.17842 L 65.6404900002,-60.17842 L 67.9595099998,-60.17842 L 67.95951,-60.17842 L 67.95951,-60.1784200002 L 67.95951,-63.9884199998 L 67.95951,-63.98842 L 67.9595099998,-63.98842 L 65.6404900002,-63.98842 L 65.64049,-63.98842 z" fill="#66cc99" fill-rule="evenodd" opacity="0.6" stroke="#555555" stroke-width="0.1"/>
			<path d="M 115.85845,-59.73911 L 115.85845,-59.7391099998 L 115.85845,-58.7408900002 L 115.85845,-58.74089 L 115.85845,-58.74089 L 116.95827,-58.74089 L 116.95827,-58.74089 L 116.95827,-58.7408900002 L 116.95827,-59.7391099998 L 116.95827,-59.73911 L 116.95827,-59.73911 L 115.85845,-59.73911 L 115.85845,-59.73911 z" fill="#66cc99" fill-rule="evenodd" opacity="0.6" stroke="#555555" stroke-width="0.1"/>
			<path d="M 93.8224,-59.71997 L 93.8224,-59.7199699998 L 93.8224,-57.6600300002 L 93.8224,-57.66003 L 93.8224000002,-57.66003 L 95.0923999998,-57.66003 L 95.0924,-57.66003 L 95.0924,-57.6600300002 L 95.0924,-59.7199699998 L 95.0924,-59.71997 L 95.0923999998,-59.71997 L 93.8224000002,-59.71997 L 93.8224,-59.71997 z" fill="#66cc99" fill-rule="evenodd" opacity="0.6" stroke="#555555" stroke-width="0.1"/>
			<path d="M 114.16173,-59.73911 L 114.16173,-59.7391099998 L 114.16173,-58.7408900002 L 114.16173,-58.74089 L 114.16173,-58.74089 L 115.26155,-58.74089 L 115.26155,-58.74089 L 115.26155,-58.7408900002 L 115.26155,-59.7391099998 L 115.26155,-59.73911 L 115.26155,-59.73911 L 114.16173,-59.73911 L 114.16173,-59.73911 z" fill="#66cc99" fill-rule="evenodd" opacity="0.6" stroke="#555555" stroke-width="0.1"/>
			<path d="M 110.86173,-59.73911 L 110.86173,-59.7391099998 L 110.86173,-58.7408900002 L 110.86173,-58.74089 L 110.86173,-58.74089 L 111.96155,-58.74089 L 111.96155,-58.74089 L 111.96155,-58.7408900002 L 111.96155,-59.7391099998 L 111.96155,-59.73911 L 111.96155,-59.73911 L 110.86173,-59.73911 L 110.86173,-59.73911 z" fill="#66cc99" fill-rule="evenodd" opacity="0.6" stroke="#555555" stroke-width="0.1"/>
			<path d="M 112.55845,-59.73911 L 112.55845,-59.7391099998 L 112.55845,-58.7408900002 L 112.55845,-58.74089 L 112.55845,-58.74089 L 113.65827,-58.74089 L 113.65827,-58.74089 L 113.65827,-58.7408900002 L 113.65827,-59.7391099998 L 113.65827,-59.73911 L 113.65827,-59.73911 L 112.55845,-59.73911 L 112.55845,-59.73911 z" fill="#66cc99" fill-rule="evenodd" opacity="0.6" stroke="#555555" stroke-width="0.1"/>
			<path d="M 97.3276,-59.71997 L 97.3276,-59.7199699998 L 97.3276,-57.6600300002 L 97.3276,-57.66003 L 97.3276000002,-57.66003 L 98.5975999998,-57.66003 L 98.5976,-57.66003 L 98.5976,-57.6600300002 L 98.5976,-59.7199699998 L 98.5976,-59.71997 L 98.5975999998,-59.71997 L 97.3276000002,-59.71997 L 97.3276,-59.71997 z" fill="#66cc99" fill-rule="evenodd" opacity="0.6" stroke="#555555" stroke-width="0.1"/>
			<path d="M 120.06089,-50.13827 L 120.06089,-50.1382699998 L 120.06089,-49.0384500002 L 120.06089,-49.03845 L 120.06089,-49.03845 L 121.05911,-49.03845 L 121.05911,-49.03845 L 121.05911,-49.0384500002 L 121.05911,-50.1382699998 L 121.05911,-50.13827 L 121.05911,-50.13827 L 120.06089,-50.13827 L 120.06089,-50.13827 z" fill="#66cc99" fill-rule="evenodd" opacity="0.6" stroke="#555555" stroke-width="0.1"/>
			<path d="M 77.9724,-45.86997 L 77.9724,-45.8699699998 L 77.9724,-43.8100300002 L 77.9724,-43.81003 L 77.9724000002,-43.81003 L 79.2423999998,-43.81003 L 79.2424,-43.81003 L 79.2424,-43.8100300002 L 79.2424,-45.8699699998 L 79.2424,-45.86997 L 79.2423999998,-45.86997 L 77.9724000002,-45.86997 L 77.9724,-45.86997 z" fill="#66cc99" fill-rule="evenodd" opacity="0.6" stroke="#555555" stroke-width="0.1"/>
			<path d="M 120.16089,-43.33827 L 120.16089,-43.3382699998 L 120.16089,-42.2384500002 L 120.16089,-42.23845 L 120.16089,-42.23845 L 121.15911,-42.23845 L 121.15911,-42.23845 L 121.15911,-42.2384500002 L 121.15911,-43.3382699998 L 121.15911,-43.33827 L 121.15911,-43.33827 L 120.16089,-43.33827 L 120.16089,-43.33827 z" fill="#66cc99" fill-rule="evenodd" opacity="0.6" stroke="#555555" stroke-width="0.1"/>
			<path d="M 120.16089,-41.64155 L 120.16089,-41.6415499998 L 120.16089,-40.5417300002 L 120.16089,-40.54173 L 120.16089,-40.54173 L 121.15911,-40.54173 L 121.15911,-40.54173 L 121.15911,-40.5417300002 L 121.15911,-41.6415499998 L 121.15911,-41.64155 L 121.15911,-41.64155 L 120.16089,-41.64155 L 120.16089,-41.64155 z" fill="#66cc99" fill-rule="evenodd" opacity="0.6" stroke="#555555" stroke-width="0.1"/>
			<path d="M 113.92473,-41.46301 L 113.92473,-41.4630099998 L 113.92473,-40.4647900002 L 113.92473,-40.46479 L 113.92473,-40.46479 L 115.02455,-40.46479 L 115.02455,-40.46479 L 115.02455,-40.4647900002 L 115.02455,-41.4630099998 L 115.02455,-41.46301 L 115.02455,-41.46301 L 113.92473,-41.46301 L 113.92473,-41.46301 z" fill="#66cc99" fill-rule="evenodd" opacity="0.6" stroke="#555555" stroke-width="0.1"/>
			<path d="M 112.25845,-41.46301 L 112.25845,-41.4630099998 L 112.25845,-40.4647900002 L 112.25845,-40.46479 L 112.25845,-40.46479 L 113.35827,-40.46479 L 113.35827,-40.46479 L 113.35827,-40.4647900002 L 113.35827,-41.4630099998 L 113.35827,-41.46301 L 113.35827,-41.46301 L 112.25845,-41.46301 L 112.25845,-41.46301 z" fill="#66cc99" fill-rule="evenodd" opacity="0.6" stroke="#555555" stroke-width="0.1"/>
			<path d="M 110.56173,-41.46301 L 110.56173,-41.4630099998 L 110.56173,-40.4647900002 L 110.56173,-40.46479 L 110.56173,-40.46479 L 111.66155,-40.46479 L 111.66155,-40.46479 L 111.66155,-40.4647900002 L 111.66155,-41.4630099998 L 111.66155,-41.46301 L 111.66155,-41.46301 L 110.56173,-41.46301 L 110.56173,-41.46301 z" fill="#66cc99" fill-rule="evenodd" opacity="0.6" stroke="#555555" stroke-width="0.1"/>
			<path d="M 115.62145,-41.46301 L 115.62145,-41.4630099998 L 115.62145,-40.4647900002 L 115.62145,-40.46479 L 115.62145,-40.46479 L 116.72127,-40.46479 L 116.72127,-40.46479 L 116.72127,-40.4647900002 L 116.72127,-41.4630099998 L 116.72127,-41.46301 L 116.72127,-41.46301 L 115.62145,-41.46301 L 115.62145,-41.46301 z" fill="#66cc99" fill-rule="evenodd" opacity="0.6" stroke="#555555" stroke-width="0.1"/>
			<path d="M 81.4776,-45.86997 L 81.4776,-45.8699699998 L 81.4776,-43.8100300002 L 81.4776,-43.81003 L 81.4776000002,-43.81003 L 82.7475999998,-43.81003 L 82.7476,-43.81003 L 82.7476,-43.8100300002 L 82.7476,-45.8699699998 L 82.7476,-45.86997 L 82.7475999998,-45.86997 L 81.4776000002,-45.86997 L 81.4776,-45.86997 z" fill="#66cc99" fill-rule="evenodd" opacity="0.6" stroke="#555555" stroke-width="0.1"/>
			<path d="M 118.06089,-45.84155 L 118.06089,-45.8415499998 L 118.06089,-44.7417300002 L 118.06089,-44.74173 L 118.06089,-44.74173 L 119.05911,-44.74173 L 119.05911,-44.74173 L 119.05911,-44.7417300002 L 119.05911,-45.8415499998 L 119.05911,-45.84155 L 119.05911,-45.84155 L 118.06089,-45.84155 L 118.06089,-45.84155 z" fill="#66cc99" fill-rule="evenodd" opacity="0.6" stroke="#555555" stroke-width="0.1"/>
			<path d="M 97.48345,-36.31411 L 97.48345,-36.3141099998 L 97.48345,-35.3158900002 L 97.48345,-35.31589 L 97.4834500002,-35.31589 L 98.5832699998,-35.31589 L 98.58327,-35.31589 L 98.58327,-35.3158900002 L 98.58327,-36.3141099998 L 98.58327,-36.31411 L 98.5832699998,-36.31411 L 97.4834500002,-36.31411 L 97.48345,-36.31411 z" fill="#66cc99" fill-rule="evenodd" opacity="0.6" stroke="#555555" stroke-width="0.1"/>
			<path d="M 95.78673,-36.31411 L 95.78673,-36.3141099998 L 95.78673,-35.3158900002 L 95.78673,-35.31589 L 95.7867300002,-35.31589 L 96.8865499998,-35.31589 L 96.88655,-35.31589 L 96.88655,-35.3158900002 L 96.88655,-36.3141099998 L 96.88655,-36.31411 L 96.8865499998,-36.31411 L 95.7867300002,-36.31411 L 95.78673,-36.31411 z" fill="#66cc99" fill-rule="evenodd" opacity="0.6" stroke="#555555" stroke-width="0.1"/>
			<path d="M 99.51206,-36.38944 L 99.51206,-36.3894399998 L 99.51206,-35.1905600002 L 99.51206,-35.19056 L 99.5120600002,-35.19056 L 100.30962,-35.19056 L 100.30962,-35.19056 L 100.30962,-35.1905600002 L 100.30962,-36.3894399998 L 100.30962,-36.38944 L 100.30962,-36.38944 L 99.5120600002,-36.38944 L 99.51206,-36.38944 z" fill="#66cc99" fill-rule="evenodd" opacity="0.6" stroke="#555555" stroke-width="0.1"/>
			<path d="M 101.31038,-36.38944 L 101.31038,-36.3894399998 L 101.31038,-35.1905600002 L 101.31038,-35.19056 L 101.31038,-35.19056 L 102.10794,-35.19056 L 102.10794,-35.19056 L 102.10794,-35.1905600002 L 102.10794,-36.3894399998 L 102.10794,-36.38944 L 102.10794,-36.38944 L 101.31038,-36.38944 L 101.31038,-36.38944 z" fill="#66cc99" fill-rule="evenodd" opacity="0.6" stroke="#555555" stroke-width="0.1"/>
			<path d="M 97.3276,-34.51997 L 97.3276,-34.5199699998 L 97.3276,-32.4600300002 L 97.3276,-32.46003 L 97.3276000002,-32.46003 L 98.5975999998,-32.46003 L 98.5976,-32.46003 L 98.5976,-32.4600300002 L 98.5976,-34.5199699998 L 98.5976,-34.51997 L 98.5975999998,-34.51997 L 97.3276000002,-34.51997 L 97.3276,-34.51997 z" fill="#66cc99" fill-rule="evenodd" opacity="0.6" stroke="#555555" stroke-width="0.1"/>
			<path d="M 93.8224,-34.51997 L 93.8224,-34.5199699998 L 93.8224,-32.4600300002 L 93.8224,-32.46003 L 93.8224000002,-32.46003 L 95.0923999998,-32.46003 L 95.0924,-32.46003 L 95.0924,-32.4600300002 L 95.0924,-34.5199699998 L 95.0924,-34.51997 L 95.0923999998,-34.51997 L 93.8224000002,-34.51997 L 93.8224,-34.51997 z" fill="#66cc99" fill-rule="evenodd" opacity="0.6" stroke="#555555" stroke-width="0.1"/>
			<path d="M 58.7009,-33.23977 L 58.7009,-33.2397699998 L 58.7009,-23.5903100002 L 58.7009,-23.59031 L 58.7009000002,-23.59031 L 69.6990999998,-23.59031 L 69.6991,-23.59031 L 69.6991,-23.5903100002 L 69.6991,-33.2397699998 L 69.6991,-33.23977 L 69.6990999998,-33.23977 L 58.7009000002,-33.23977 L 58.7009,-33.23977 z" fill="#66cc99" fill-rule="evenodd" opacity="0.6" stroke="#555555" stroke-width="0.1"/>
			<path d="M 33.7009,-33.23977 L 33.7009,-33.2397699998 L 33.7009,-23.5903100002 L 33.7009,-23.59031 L 33.7009000002,-23.59031 L 44.6990999998,-23.59031 L 44.6991,-23.59031 L 44.6991,-23.5903100002 L 44.6991,-33.2397699998 L 44.6991,-33.23977 L 44.6990999998,-33.23977 L 33.7009000002,-33.23977 L 33.7009,-33.23977 z" fill="#66cc99" fill-rule="evenodd" opacity="0.6" stroke="#555555" stroke-width="0.1"/>
			<path d="M 46.2009,-33.23977 L 46.2009,-33.2397699998 L 46.2009,-23.5903100002 L 46.2009,-23.59031 L 46.2009000002,-23.59031 L 57.1990999998,-23.59031 L 57.1991,-23.59031 L 57.1991,-23.5903100002 L 57.1991,-33.2397699998 L 57.1991,-33.23977 L 57.1990999998,-33.23977 L 46.2009000002,-33.23977 L 46.2009,-33.23977 z" fill="#66cc99" fill-rule="evenodd" opacity="0.6" stroke="#555555" stroke-width="0.1"/>
			<path d="M 35.50049,-41.48842 L 35.50049,-41.4884199998 L 35.50049,-37.6784200002 L 35.50049,-37.67842 L 35.5004900002,-37.67842 L 37.8195099998,-37.67842 L 37.81951,-37.67842 L 37.81951,-37.6784200002 L 37.81951,-41.4884199998 L 37.81951,-41.48842 L 37.8195099998,-41.48842 L 35.5004900002,-41.48842 L 35.50049,-41.48842 z" fill="#66cc99" fill-rule="evenodd" opacity="0.6" stroke="#555555" stroke-width="0.1"/>
			<path d="M 95.56,-40.35 L 95.56,-40.3499999998 L 95.56,-39.7500000002 L 95.56,-39.75 L 95.5600000002,-39.75 L 97.1099999998,-39.75 L 97.11,-39.75 L 97.11,-39.7500000002 L 97.11,-40.3499999998 L 97.11,-40.35 L 97.1099999998,-40.35 L 95.5600000002,-40.35 L 95.56,-40.35 z" fill="#66cc99" fill-rule="evenodd" opacity="0.6" stroke="#555555" stroke-width="0.1"/>
			<path d="M 100.96,-40.35 L 100.96,-40.3499999998 L 100.96,-39.7500000002 L 100.96,-39.75 L 100.96,-39.75 L 102.51,-39.75 L 102.51,-39.75 L 102.51,-39.7500000002 L 102.51,-40.3499999998 L 102.51,-40.35 L 102.51,-40.35 L 100.96,-40.35 L 100.96,-40.35 z" fill="#66cc99" fill-rule="evenodd" opacity="0.6" stroke="#555555" stroke-width="0.1"/>
			<path d="M 92.83003,-42.4276 L 92.83003,-42.4275999998 L 92.83003,-41.1576000002 L 92.83003,-41.1576 L 92.8300300002,-41.1576 L 94.8899699998,-41.1576 L 94.88997,-41.1576 L 94.88997,-41.1576000002 L 94.88997,-42.4275999998 L 94.88997,-42.4276 L 94.8899699998,-42.4276 L 92.8300300002,-42.4276 L 92.83003,-42.4276 z" fill="#66cc99" fill-rule="evenodd" opacity="0.6" stroke="#555555" stroke-width="0.1"/>
			<path d="M 100.96,-41.62 L 100.96,-41.6199999998 L 100.96,-41.0200000002 L 100.96,-41.02 L 100.96,-41.02 L 102.51,-41.02 L 102.51,-41.02 L 102.51,-41.0200000002 L 102.51,-41.6199999998 L 102.51,-41.62 L 102.51,-41.62 L 100.96,-41.62 L 100.96,-41.62 z" fill="#66cc99" fill-rule="evenodd" opacity="0.6" stroke="#555555" stroke-width="0.1"/>
			<path d="M 95.56,-41.62 L 95.56,-41.6199999998 L 95.56,-41.0200000002 L 95.56,-41.02 L 95.5600000002,-41.02 L 97.1099999998,-41.02 L 97.11,-41.02 L 97.11,-41.0200000002 L 97.11,-41.6199999998 L 97.11,-41.62 L 97.1099999998,-41.62 L 95.5600000002,-41.62 L 95.56,-41.62 z" fill="#66cc99" fill-rule="evenodd" opacity="0.6" stroke="#555555" stroke-width="0.1"/>
			<path d="M 103.16089,-40.83827 L 103.16089,-40.8382699998 L 103.16089,-39.7384500002 L 103.16089,-39.73845 L 103.16089,-39.73845 L 104.15911,-39.73845 L 104.15911,-39.73845 L 104.15911,-39.7384500002 L 104.15911,-40.8382699998 L 104.15911,-40.83827 L 104.15911,-40.83827 L 103.16089,-40.83827 L 103.16089,-40.83827 z" fill="#66cc99" fill-rule="evenodd" opacity="0.6" stroke="#555555" stroke-width="0.1"/>
			<path d="M 91.33538,-40.63944 L 91.33538,-40.6394399998 L 91.33538,-39.4405600002 L 91.33538,-39.44056 L 91.3353800002,-39.44056 L 92.1329399998,-39.44056 L 92.13294,-39.44056 L 92.13294,-39.4405600002 L 92.13294,-40.6394399998 L 92.13294,-40.63944 L 92.1329399998,-40.63944 L 91.3353800002,-40.63944 L 91.33538,-40.63944 z" fill="#66cc99" fill-rule="evenodd" opacity="0.6" stroke="#555555" stroke-width="0.1"/>
			<path d="M 89.53706,-40.63944 L 89.53706,-40.6394399998 L 89.53706,-39.4405600002 L 89.53706,-39.44056 L 89.5370600002,-39.44056 L 90.3346199998,-39.44056 L 90.33462,-39.44056 L 90.33462,-39.4405600002 L 90.33462,-40.6394399998 L 90.33462,-40.63944 L 90.3346199998,-40.63944 L 89.5370600002,-40.63944 L 89.53706,-40.63944 z" fill="#66cc99" fill-rule="evenodd" opacity="0.6" stroke="#555555" stroke-width="0.1"/>
			<path d="M 40.58049,-41.48842 L 40.58049,-41.4884199998 L 40.58049,-37.6784200002 L 40.58049,-37.67842 L 40.5804900002,-37.67842 L 42.8995099998,-37.67842 L 42.89951,-37.67842 L 42.89951,-37.6784200002 L 42.89951,-41.4884199998 L 42.89951,-41.48842 L 42.8995099998,-41.48842 L 40.5804900002,-41.48842 L 40.58049,-41.48842 z" fill="#66cc99" fill-rule="evenodd" opacity="0.6" stroke="#555555" stroke-width="0.1"/>
			<path d="M 48.00049,-41.48842 L 48.00049,-41.4884199998 L 48.00049,-37.6784200002 L 48.00049,-37.67842 L 48.0004900002,-37.67842 L 50.3195099998,-37.67842 L 50.31951,-37.67842 L 50.31951,-37.6784200002 L 50.31951,-41.4884199998 L 50.31951,-41.48842 L 50.3195099998,-41.48842 L 48.0004900002,-41.48842 L 48.00049,-41.48842 z" fill="#66cc99" fill-rule="evenodd" opacity="0.6" stroke="#555555" stroke-width="0.1"/>
			<path d="M 53.08049,-41.48842 L 53.08049,-41.4884199998 L 53.08049,-37.6784200002 L 53.08049,-37.67842 L 53.0804900002,-37.67842 L 55.3995099998,-37.67842 L 55.39951,-37.67842 L 55.39951,-37.6784200002 L 55.39951,-41.4884199998 L 55.39951,-41.48842 L 55.3995099998,-41.48842 L 53.0804900002,-41.48842 L 53.08049,-41.48842 z" fill="#66cc99" fill-rule="evenodd" opacity="0.6" stroke="#555555" stroke-width="0.1"/>
			<path d="M 65.58049,-41.48842 L 65.58049,-41.4884199998 L 65.58049,-37.6784200002 L 65.58049,-37.67842 L 65.5804900002,-37.67842 L 67.8995099998,-37.67842 L 67.89951,-37.67842 L 67.89951,-37.6784200002 L 67.89951,-41.4884199998 L 67.89951,-41.48842 L 67.8995099998,-41.48842 L 65.5804900002,-41.48842 L 65.58049,-41.48842 z" fill="#66cc99" fill-rule="evenodd" opacity="0.6" stroke="#555555" stroke-width="0.1"/>
			<path d="M 60.50049,-41.48842 L 60.50049,-41.4884199998 L 60.50049,-37.6784200002 L 60.50049,-37.67842 L 60.5004900002,-37.67842 L 62.8195099998,-37.67842 L 62.81951,-37.67842 L 62.81951,-37.6784200002 L 62.81951,-41.4884199998 L 62.81951,-41.48842 L 62.8195099998,-41.48842 L 60.5004900002,-41.48842 L 60.50049,-41.48842 z" fill="#66cc99" fill-rule="evenodd" opacity="0.6" stroke="#555555" stroke-width="0.1"/>
			<path d="M 103.16089,-39.14155 L 103.16089,-39.1415499998 L 103.16089,-38.0417300002 L 103.16089,-38.04173 L 103.16089,-38.04173 L 104.15911,-38.04173 L 104.15911,-38.04173 L 104.15911,-38.0417300002 L 104.15911,-39.1415499998 L 104.15911,-39.14155 L 104.15911,-39.14155 L 103.16089,-39.14155 L 103.16089,-39.14155 z" fill="#66cc99" fill-rule="evenodd" opacity="0.6" stroke="#555555" stroke-width="0.1"/>
			<path d="M 100.96,-39.08 L 100.96,-39.0799999998 L 100.96,-38.4800000002 L 100.96,-38.48 L 100.96,-38.48 L 102.51,-38.48 L 102.51,-38.48 L 102.51,-38.4800000002 L 102.51,-39.0799999998 L 102.51,-39.08 L 102.51,-39.08 L 100.96,-39.08 L 100.96,-39.08 z" fill="#66cc99" fill-rule="evenodd" opacity="0.6" stroke="#555555" stroke-width="0.1"/>
			<path d="M 95.56,-39.08 L 95.56,-39.0799999998 L 95.56,-38.4800000002 L 95.56,-38.48 L 95.5600000002,-38.48 L 97.1099999998,-38.48 L 97.11,-38.48 L 97.11,-38.4800000002 L 97.11,-39.0799999998 L 97.11,-39.08 L 97.1099999998,-39.08 L 95.5600000002,-39.08 L 95.56,-39.08 z" fill="#66cc99" fill-rule="evenodd" opacity="0.6" stroke="#555555" stroke-width="0.1"/>
			<path d="M 92.83003,-38.9224 L 92.83003,-38.9223999998 L 92.83003,-37.6524000002 L 92.83003,-37.6524 L 92.8300300002,-37.6524 L 94.8899699998,-37.6524 L 94.88997,-37.6524 L 94.88997,-37.6524000002 L 94.88997,-38.9223999998 L 94.88997,-38.9224 L 94.8899699998,-38.9224 L 92.8300300002,-38.9224 L 92.83003,-38.9224 z" fill="#66cc99" fill-rule="evenodd" opacity="0.6" stroke="#555555" stroke-width="0.1"/>
			<path d="M 100.96,-37.81 L 100.96,-37.8099999998 L 100.96,-37.2100000002 L 100.96,-37.21 L 100.96,-37.21 L 102.51,-37.21 L 102.51,-37.21 L 102.51,-37.2100000002 L 102.51,-37.8099999998 L 102.51,-37.81 L 102.51,-37.81 L 100.96,-37.81 L 100.96,-37.81 z" fill="#66cc99" fill-rule="evenodd" opacity="0.6" stroke="#555555" stroke-width="0.1"/>
			<path d="M 95.56,-37.81 L 95.56,-37.8099999998 L 95.56,-37.2100000002 L 95.56,-37.21 L 95.5600000002,-37.21 L 97.1099999998,-37.21 L 97.11,-37.21 L 97.11,-37.2100000002 L 97.11,-37.8099999998 L 97.11,-37.81 L 97.1099999998,-37.81 L 95.5600000002,-37.81 L 95.56,-37.81 z" fill="#66cc99" fill-rule="evenodd" opacity="0.6" stroke="#555555" stroke-width="0.1"/>
			<path d="M 120.06089,-48.44155 L 120.06089,-48.4415499998 L 120.06089,-47.3417300002 L 120.06089,-47.34173 L 120.06089,-47.34173 L 121.05911,-47.34173 L 121.05911,-47.34173 L 121.05911,-47.3417300002 L 121.05911,-48.4415499998 L 121.05911,-48.44155 L 121.05911,-48.44155 L 120.06089,-48.44155 L 120.06089,-48.44155 z" fill="#66cc99" fill-rule="evenodd" opacity="0.6" stroke="#555555" stroke-width="0.1"/>
			<path d="M 118.06089,-47.53827 L 118.06089,-47.5382699998 L 118.06089,-46.4384500002 L 118.06089,-46.43845 L 118.06089,-46.43845 L 119.05911,-46.43845 L 119.05911,-46.43845 L 119.05911,-46.4384500002 L 119.05911,-47.5382699998 L 119.05911,-47.53827 L 119.05911,-47.53827 L 118.06089,-47.53827 L 118.06089,-47.53827 z" fill="#66cc99" fill-rule="evenodd" opacity="0.6" stroke="#555555" stroke-width="0.1"/>
			<path d="M 115.85845,-55.83911 L 115.85845,-55.8391099998 L 115.85845,-54.8408900002 L 115.85845,-54.84089 L 115.85845,-54.84089 L 116.95827,-54.84089 L 116.95827,-54.84089 L 116.95827,-54.8408900002 L 116.95827,-55.8391099998 L 116.95827,-55.83911 L 116.95827,-55.83911 L 115.85845,-55.83911 L 115.85845,-55.83911 z" fill="#66cc99" fill-rule="evenodd" opacity="0.6" stroke="#555555" stroke-width="0.1"/>
			<path d="M 103.16089,-51.74155 L 103.16089,-51.7415499998 L 103.16089,-50.6417300002 L 103.16089,-50.64173 L 103.16089,-50.64173 L 104.15911,-50.64173 L 104.15911,-50.64173 L 104.15911,-50.6417300002 L 104.15911,-51.7415499998 L 104.15911,-51.74155 L 104.15911,-51.74155 L 103.16089,-51.74155 L 103.16089,-51.74155 z" fill="#66cc99" fill-rule="evenodd" opacity="0.6" stroke="#555555" stroke-width="0.1"/>
			<path d="M 33.7609,-55.73977 L 33.7609,-55.7397699998 L 33.7609,-46.0903100002 L 33.7609,-46.09031 L 33.7609000002,-46.09031 L 44.7590999998,-46.09031 L 44.7591,-46.09031 L 44.7591,-46.0903100002 L 44.7591,-55.7397699998 L 44.7591,-55.73977 L 44.7590999998,-55.73977 L 33.7609000002,-55.73977 L 33.7609,-55.73977 z" fill="#66cc99" fill-rule="evenodd" opacity="0.6" stroke="#555555" stroke-width="0.1"/>
			<path d="M 100.96,-51.68 L 100.96,-51.6799999998 L 100.96,-51.0800000002 L 100.96,-51.08 L 100.96,-51.08 L 102.51,-51.08 L 102.51,-51.08 L 102.51,-51.0800000002 L 102.51,-51.6799999998 L 102.51,-51.68 L 102.51,-51.68 L 100.96,-51.68 L 100.96,-51.68 z" fill="#66cc99" fill-rule="evenodd" opacity="0.6" stroke="#555555" stroke-width="0.1"/>
			<path d="M 95.56,-51.68 L 95.56,-51.6799999998 L 95.56,-51.0800000002 L 95.56,-51.08 L 95.5600000002,-51.08 L 97.1099999998,-51.08 L 97.11,-51.08 L 97.11,-51.0800000002 L 97.11,-51.6799999998 L 97.11,-51.68 L 97.1099999998,-51.68 L 95.5600000002,-51.68 L 95.56,-51.68 z" fill="#66cc99" fill-rule="evenodd" opacity="0.6" stroke="#555555" stroke-width="0.1"/>
			<path d="M 77.9724,-55.36997 L 77.9724,-55.3699699998 L 77.9724,-53.3100300002 L 77.9724,-53.31003 L 77.9724000002,-53.31003 L 79.2423999998,-53.31003 L 79.2424,-53.31003 L 79.2424,-53.3100300002 L 79.2424,-55.3699699998 L 79.2424,-55.36997 L 79.2423999998,-55.36997 L 77.9724000002,-55.36997 L 77.9724,-55.36997 z" fill="#66cc99" fill-rule="evenodd" opacity="0.6" stroke="#555555" stroke-width="0.1"/>
			<path d="M 81.4776,-55.36997 L 81.4776,-55.3699699998 L 81.4776,-53.3100300002 L 81.4776,-53.31003 L 81.4776000002,-53.31003 L 82.7475999998,-53.31003 L 82.7476,-53.31003 L 82.7476,-53.3100300002 L 82.7476,-55.3699699998 L 82.7476,-55.36997 L 82.7475999998,-55.36997 L 81.4776000002,-55.36997 L 81.4776,-55.36997 z" fill="#66cc99" fill-rule="evenodd" opacity="0.6" stroke="#555555" stroke-width="0.1"/>
			<path d="M 95.56,-54.22 L 95.56,-54.2199999998 L 95.56,-53.6200000002 L 95.56,-53.62 L 95.5600000002,-53.62 L 97.1099999998,-53.62 L 97.11,-53.62 L 97.11,-53.6200000002 L 97.11,-54.2199999998 L 97.11,-54.22 L 97.1099999998,-54.22 L 95.5600000002,-54.22 L 95.56,-54.22 z" fill="#66cc99" fill-rule="evenodd" opacity="0.6" stroke="#555555" stroke-width="0.1"/>
			<path d="M 100.96,-54.22 L 100.96,-54.2199999998 L 100.96,-53.6200000002 L 100.96,-53.62 L 100.96,-53.62 L 102.51,-53.62 L 102.51,-53.62 L 102.51,-53.6200000002 L 102.51,-54.2199999998 L 102.51,-54.22 L 102.51,-54.22 L 100.96,-54.22 L 100.96,-54.22 z" fill="#66cc99" fill-rule="evenodd" opacity="0.6" stroke="#555555" stroke-width="0.1"/>
			<path d="M 103.16089,-53.43827 L 103.16089,-53.4382699998 L 103.16089,-52.3384500002 L 103.16089,-52.33845 L 103.16089,-52.33845 L 104.15911,-52.33845 L 104.15911,-52.33845 L 104.15911,-52.3384500002 L 104.15911,-53.4382699998 L 104.15911,-53.43827 L 104.15911,-53.43827 L 103.16089,-53.43827 L 103.16089,-53.43827 z" fill="#66cc99" fill-rule="evenodd" opacity="0.6" stroke="#555555" stroke-width="0.1"/>
			<path d="M 95.56,-52.95 L 95.56,-52.9499999998 L 95.56,-52.3500000002 L 95.56,-52.35 L 95.5600000002,-52.35 L 97.1099999998,-52.35 L 97.11,-52.35 L 97.11,-52.3500000002 L 97.11,-52.9499999998 L 97.11,-52.95 L 97.1099999998,-52.95 L 95.5600000002,-52.95 L 95.56,-52.95 z" fill="#66cc99" fill-rule="evenodd" opacity="0.6" stroke="#555555" stroke-width="0.1"/>
			<path d="M 100.96,-52.95 L 100.96,-52.9499999998 L 100.96,-52.3500000002 L 100.96,-52.35 L 100.96,-52.35 L 102.51,-52.35 L 102.51,-52.35 L 102.51,-52.3500000002 L 102.51,-52.9499999998 L 102.51,-52.95 L 102.51,-52.95 L 100.96,-52.95 L 100.96,-52.95 z" fill="#66cc99" fill-rule="evenodd" opacity="0.6" stroke="#555555" stroke-width="0.1"/>
			<path d="M 91.33538,-52.83944 L 91.33538,-52.8394399998 L 91.33538,-51.6405600002 L 91.33538,-51.64056 L 91.3353800002,-51.64056 L 92.1329399998,-51.64056 L 92.13294,-51.64056 L 92.13294,-51.6405600002 L 92.13294,-52.8394399998 L 92.13294,-52.83944 L 92.1329399998,-52.83944 L 91.3353800002,-52.83944 L 91.33538,-52.83944 z" fill="#66cc99" fill-rule="evenodd" opacity="0.6" stroke="#555555" stroke-width="0.1"/>
			<path d="M 89.53706,-52.83944 L 89.53706,-52.8394399998 L 89.53706,-51.6405600002 L 89.53706,-51.64056 L 89.5370600002,-51.64056 L 90.3346199998,-51.64056 L 90.33462,-51.64056 L 90.33462,-51.6405600002 L 90.33462,-52.8394399998 L 90.33462,-52.83944 L 90.3346199998,-52.83944 L 89.5370600002,-52.83944 L 89.53706,-52.83944 z" fill="#66cc99" fill-rule="evenodd" opacity="0.6" stroke="#555555" stroke-width="0.1"/>
			<path d="M 110.76173,-55.83911 L 110.76173,-55.8391099998 L 110.76173,-54.8408900002 L 110.76173,-54.84089 L 110.76173,-54.84089 L 111.86155,-54.84089 L 111.86155,-54.84089 L 111.86155,-54.8408900002 L 111.86155,-55.8391099998 L 111.86155,-55.83911 L 111.86155,-55.83911 L 110.76173,-55.83911 L 110.76173,-55.83911 z" fill="#66cc99" fill-rule="evenodd" opacity="0.6" stroke="#555555" stroke-width="0.1"/>
			<path d="M 112.45845,-55.83911 L 112.45845,-55.8391099998 L 112.45845,-54.8408900002 L 112.45845,-54.84089 L 112.45845,-54.84089 L 113.55827,-54.84089 L 113.55827,-54.84089 L 113.55827,-54.8408900002 L 113.55827,-55.8391099998 L 113.55827,-55.83911 L 113.55827,-55.83911 L 112.45845,-55.83911 L 112.45845,-55.83911 z" fill="#66cc99" fill-rule="evenodd" opacity="0.6" stroke="#555555" stroke-width="0.1"/>
			<path d="M 114.16173,-55.83911 L 114.16173,-55.8391099998 L 114.16173,-54.8408900002 L 114.16173,-54.84089 L 114.16173,-54.84089 L 115.26155,-54.84089 L 115.26155,-54.84089 L 115.26155,-54.8408900002 L 115.26155,-55.8391099998 L 115.26155,-55.83911 L 115.26155,-55.83911 L 114.16173,-55.83911 L 114.16173,-55.83911 z" fill="#66cc99" fill-rule="evenodd" opacity="0.6" stroke="#555555" stroke-width="0.1"/>
			<path d="M 92.83003,-55.0276 L 92.83003,-55.0275999998 L 92.83003,-53.7576000002 L 92.83003,-53.7576 L 92.8300300002,-53.7576 L 94.8899699998,-53.7576 L 94.88997,-53.7576 L 94.88997,-53.7576000002 L 94.88997,-55.0275999998 L 94.88997,-55.0276 L 94.8899699998,-55.0276 L 92.8300300002,-55.0276 L 92.83003,-55.0276 z" fill="#66cc99" fill-rule="evenodd" opacity="0.6" stroke="#555555" stroke-width="0.1"/>
			<path d="M 92.83003,-51.5224 L 92.83003,-51.5223999998 L 92.83003,-50.2524000002 L 92.83003,-50.2524 L 92.8300300002,-50.2524 L 94.8899699998,-50.2524 L 94.88997,-50.2524 L 94.88997,-50.2524000002 L 94.88997,-51.5223999998 L 94.88997,-51.5224 L 94.8899699998,-51.5224 L 92.8300300002,-51.5224 L 92.83003,-51.5224 z" fill="#66cc99" fill-rule="evenodd" opacity="0.6" stroke="#555555" stroke-width="0.1"/>
			<path d="M 115.85845,-51.33911 L 115.85845,-51.3391099998 L 115.85845,-50.3408900002 L 115.85845,-50.34089 L 115.85845,-50.34089 L 116.95827,-50.34089 L 116.95827,-50.34089 L 116.95827,-50.3408900002 L 116.95827,-51.3391099998 L 116.95827,-51.33911 L 116.95827,-51.33911 L 115.85845,-51.33911 L 115.85845,-51.33911 z" fill="#66cc99" fill-rule="evenodd" opacity="0.6" stroke="#555555" stroke-width="0.1"/>
			<path d="M 110.76173,-51.33911 L 110.76173,-51.3391099998 L 110.76173,-50.3408900002 L 110.76173,-50.34089 L 110.76173,-50.34089 L 111.86155,-50.34089 L 111.86155,-50.34089 L 111.86155,-50.3408900002 L 111.86155,-51.3391099998 L 111.86155,-51.33911 L 111.86155,-51.33911 L 110.76173,-51.33911 L 110.76173,-51.33911 z" fill="#66cc99" fill-rule="evenodd" opacity="0.6" stroke="#555555" stroke-width="0.1"/>
			<path d="M 112.45845,-51.33911 L 112.45845,-51.3391099998 L 112.45845,-50.3408900002 L 112.45845,-50.34089 L 112.45845,-50.34089 L 113.55827,-50.34089 L 113.55827,-50.34089 L 113.55827,-50.3408900002 L 113.55827,-51.3391099998 L 113.55827,-51.33911 L 113.55827,-51.33911 L 112.45845,-51.33911 L 112.45845,-51.33911 z" fill="#66cc99" fill-rule="evenodd" opacity="0.6" stroke="#555555" stroke-width="0.1"/>
			<path d="M 114.16173,-51.33911 L 114.16173,-51.3391099998 L 114.16173,-50.3408900002 L 114.16173,-50.34089 L 114.16173,-50.34089 L 115.26155,-50.34089 L 115.26155,-50.34089 L 115.26155,-50.3408900002 L 115.26155,-51.3391099998 L 115.26155,-51.33911 L 115.26155,-51.33911 L 114.16173,-51.33911 L 114.16173,-51.33911 z" fill="#66cc99" fill-rule="evenodd" opacity="0.6" stroke="#555555" stroke-width="0.1"/>
			<path d="M 95.56,-50.41 L 95.56,-50.4099999998 L 95.56,-49.8100000002 L 95.56,-49.81 L 95.5600000002,-49.81 L 97.1099999998,-49.81 L 97.11,-49.81 L 97.11,-49.8100000002 L 97.11,-50.4099999998 L 97.11,-50.41 L 97.1099999998,-50.41 L 95.5600000002,-50.41 L 95.56,-50.41 z" fill="#66cc99" fill-rule="evenodd" opacity="0.6" stroke="#555555" stroke-width="0.1"/>
			<path d="M 100.96,-50.41 L 100.96,-50.4099999998 L 100.96,-49.8100000002 L 100.96,-49.81 L 100.96,-49.81 L 102.51,-49.81 L 102.51,-49.81 L 102.51,-49.8100000002 L 102.51,-50.4099999998 L 102.51,-50.41 L 102.51,-50.41 L 100.96,-50.41 L 100.96,-50.41 z" fill="#66cc99" fill-rule="evenodd" opacity="0.6" stroke="#555555" stroke-width="0.1"/>
			<path d="M 46.2609,-55.73977 L 46.2609,-55.7397699998 L 46.2609,-46.0903100002 L 46.2609,-46.09031 L 46.2609000002,-46.09031 L 57.2590999998,-46.09031 L 57.2591,-46.09031 L 57.2591,-46.0903100002 L 57.2591,-55.7397699998 L 57.2591,-55.73977 L 57.2590999998,-55.73977 L 46.2609000002,-55.73977 L 46.2609,-55.73977 z" fill="#66cc99" fill-rule="evenodd" opacity="0.6" stroke="#555555" stroke-width="0.1"/>
			<path d="M 58.7609,-55.73977 L 58.7609,-55.7397699998 L 58.7609,-46.0903100002 L 58.7609,-46.09031 L 58.7609000002,-46.09031 L 69.7590999998,-46.09031 L 69.7591,-46.09031 L 69.7591,-46.0903100002 L 69.7591,-55.7397699998 L 69.7591,-55.73977 L 69.7590999998,-55.73977 L 58.7609000002,-55.73977 L 58.7609,-55.73977 z" fill="#66cc99" fill-rule="evenodd" opacity="0.6" stroke="#555555" stroke-width="0.1"/>
			<path d="M 77.9724,-50.66997 L 77.9724,-50.6699699998 L 77.9724,-48.6100300002 L 77.9724,-48.61003 L 77.9724000002,-48.61003 L 79.2423999998,-48.61003 L 79.2424,-48.61003 L 79.2424,-48.6100300002 L 79.2424,-50.6699699998 L 79.2424,-50.66997 L 79.2423999998,-50.66997 L 77.9724000002,-50.66997 L 77.9724,-50.66997 z" fill="#66cc99" fill-rule="evenodd" opacity="0.6" stroke="#555555" stroke-width="0.1"/>
			<path d="M 81.4776,-50.66997 L 81.4776,-50.6699699998 L 81.4776,-48.6100300002 L 81.4776,-48.61003 L 81.4776000002,-48.61003 L 82.7475999998,-48.61003 L 82.7476,-48.61003 L 82.7476,-48.6100300002 L 82.7476,-50.6699699998 L 82.7476,-50.66997 L 82.7475999998,-50.66997 L 81.4776000002,-50.66997 L 81.4776,-50.66997 z" fill="#66cc99" fill-rule="evenodd" opacity="0.6" stroke="#555555" stroke-width="0.1"/>
			<path d="M 95.78673,-48.91411 L 95.78673,-48.9141099998 L 95.78673,-47.9158900002 L 95.78673,-47.91589 L 95.7867300002,-47.91589 L 96.8865499998,-47.91589 L 96.88655,-47.91589 L 96.88655,-47.9158900002 L 96.88655,-48.9141099998 L 96.88655,-48.91411 L 96.8865499998,-48.91411 L 95.7867300002,-48.91411 L 95.78673,-48.91411 z" fill="#66cc99" fill-rule="evenodd" opacity="0.6" stroke="#555555" stroke-width="0.1"/>
			<path d="M 97.48345,-48.91411 L 97.48345,-48.9141099998 L 97.48345,-47.9158900002 L 97.48345,-47.91589 L 97.4834500002,-47.91589 L 98.5832699998,-47.91589 L 98.58327,-47.91589 L 98.58327,-47.9158900002 L 98.58327,-48.9141099998 L 98.58327,-48.91411 L 98.5832699998,-48.91411 L 97.4834500002,-48.91411 L 97.48345,-48.91411 z" fill="#66cc99" fill-rule="evenodd" opacity="0.6" stroke="#555555" stroke-width="0.1"/>
			<path d="M 101.31038,-48.98944 L 101.31038,-48.9894399998 L 101.31038,-47.7905600002 L 101.31038,-47.79056 L 101.31038,-47.79056 L 102.10794,-47.79056 L 102.10794,-47.79056 L 102.10794,-47.7905600002 L 102.10794,-48.9894399998 L 102.10794,-48.98944 L 102.10794,-48.98944 L 101.31038,-48.98944 L 101.31038,-48.98944 z" fill="#66cc99" fill-rule="evenodd" opacity="0.6" stroke="#555555" stroke-width="0.1"/>
			<path d="M 99.51206,-48.98944 L 99.51206,-48.9894399998 L 99.51206,-47.7905600002 L 99.51206,-47.79056 L 99.5120600002,-47.79056 L 100.30962,-47.79056 L 100.30962,-47.79056 L 100.30962,-47.7905600002 L 100.30962,-48.9894399998 L 100.30962,-48.98944 L 100.30962,-48.98944 L 99.5120600002,-48.98944 L 99.51206,-48.98944 z" fill="#66cc99" fill-rule="evenodd" opacity="0.6" stroke="#555555" stroke-width="0.1"/>
			<path d="M 93.8224,-47.11997 L 93.8224,-47.1199699998 L 93.8224,-45.0600300002 L 93.8224,-45.06003 L 93.8224000002,-45.06003 L 95.0923999998,-45.06003 L 95.0924,-45.06003 L 95.0924,-45.0600300002 L 95.0924,-47.1199699998 L 95.0924,-47.11997 L 95.0923999998,-47.11997 L 93.8224000002,-47.11997 L 93.8224,-47.11997 z" fill="#66cc99" fill-rule="evenodd" opacity="0.6" stroke="#555555" stroke-width="0.1"/>
			<path d="M 97.3276,-47.11997 L 97.3276,-47.1199699998 L 97.3276,-45.0600300002 L 97.3276,-45.06003 L 97.3276000002,-45.06003 L 98.5975999998,-45.06003 L 98.5976,-45.06003 L 98.5976,-45.0600300002 L 98.5976,-47.1199699998 L 98.5976,-47.11997 L 98.5975999998,-47.11997 L 97.3276000002,-47.11997 L 97.3276,-47.11997 z" fill="#66cc99" fill-rule="evenodd" opacity="0.6" stroke="#555555" stroke-width="0.1"/>
		</g>
	</g>
	 
</svg>
